<?xml version="1.0" encoding="UTF-8"?><svg xmlns="http://www.w3.org/2000/svg" viewBox="0 0 444.78 441.39"><defs><style>.cls-1{fill:#31b6cc;font-family:Abel-Regular, Abel;font-size:14px;letter-spacing:.1em;}.cls-2{fill:#f8f7f7;}.cls-3,.cls-4{fill:#fff;}.cls-5{fill:#fafafa;}.cls-4{font-family:AdobeHandwriting-Ernie, 'Adobe Handwriting';font-size:128px;letter-spacing:-.15em;}</style></defs><g id="bigDots1"><circle class="cls-5" cx="84.37" cy="60.06" r="7.44"/><circle class="cls-5" cx="65.87" cy="95.95" r="7.44"/><circle class="cls-5" cx="123.05" cy="49.03" r="7.44"/><circle class="cls-5" cx="155.99" cy="24.71" r="7.44"/><circle class="cls-5" cx="206.68" cy="17.27" r="7.44"/><circle class="cls-5" cx="257.82" cy="13.3" r="7.44"/><circle class="cls-5" cx="288.17" cy="30.54" r="7.44"/><circle class="cls-5" cx="327.43" cy="43.55" r="7.44"/><circle class="cls-5" cx="338.31" cy="72.22" r="7.44"/><circle class="cls-5" cx="374.05" cy="88.52" r="7.44"/><circle class="cls-5" cx="396.19" cy="118.24" r="7.44"/><circle class="cls-5" cx="424.92" cy="249.91" r="7.44"/><circle class="cls-5" cx="415.33" cy="210.69" r="7.44" transform="translate(-36.34 324.19) rotate(-41)"/><circle class="cls-5" cx="402.96" cy="283.61" r="7.44"/><circle class="cls-5" cx="394.06" cy="323.58" r="7.44"/><circle class="cls-5" cx="360.69" cy="362.45" r="7.44"/><circle class="cls-5" cx="324.7" cy="399" r="7.44"/><circle class="cls-5" cx="290.49" cy="405.9" r="7.44"/><circle class="cls-5" cx="252.32" cy="421.85" r="7.44"/><circle class="cls-5" cx="225.31" cy="407.35" r="7.44"/><circle class="cls-5" cx="187.64" cy="418.49" r="7.44" transform="translate(-228.54 225.78) rotate(-41)"/><circle class="cls-5" cx="153.4" cy="414.41" r="7.44"/><circle class="cls-5" cx="123.99" cy="386.97" r="7.44"/><circle class="cls-5" cx="86.15" cy="371.31" r="7.44"/><circle class="cls-5" cx="53.62" cy="331.74" r="7.44"/><circle class="cls-5" cx="23.82" cy="289.99" r="7.44"/><circle class="cls-5" cx="22.91" cy="255.1" r="7.44"/><circle class="cls-5" cx="13.78" cy="214.76" r="7.44"/><circle class="cls-5" cx="32.72" cy="190.65" r="7.44"/><circle class="cls-5" cx="28.23" cy="151.62" r="7.44" transform="translate(-74.22 36.34) rotate(-31.08)"/><circle class="cls-5" cx="42.25" cy="117.31" r="7.44" transform="translate(-54.49 38.65) rotate(-31.08)"/><circle class="cls-5" cx="403.63" cy="148.35" r="7.44" transform="translate(1.69 301.22) rotate(-41)"/><circle class="cls-5" cx="421.87" cy="180.66" r="7.44" transform="translate(-15.03 321.11) rotate(-41)"/></g><g id="bigDots2"><circle class="cls-2" cx="62.05" cy="78.28" r="7.44"/><circle class="cls-2" cx="107.81" cy="72.94" r="7.44" transform="translate(-3.51 5.47) rotate(-2.86)"/><circle class="cls-2" cx="90.44" cy="103.47" r="7.44"/><circle class="cls-2" cx="56.46" cy="144.81" r="7.44"/><circle class="cls-2" cx="10.76" cy="176.07" r="7.44"/><circle class="cls-2" cx="34.89" cy="235" r="7.44"/><circle class="cls-2" cx="49.02" cy="276.2" r="7.44"/><circle class="cls-2" cx="44.88" cy="307.95" r="7.44"/><circle class="cls-2" cx="80.48" cy="334" r="7.44"/><circle class="cls-2" cx="113.27" cy="360.53" r="7.44" transform="translate(-17.86 6.11) rotate(-2.86)"/><circle class="cls-2" cx="129.4" cy="411.93" r="7.44" transform="translate(-20.41 6.98) rotate(-2.86)"/><circle class="cls-2" cx="257.41" cy="394.41" r="7.44"/><circle class="cls-2" cx="203.94" cy="397" r="7.44" transform="translate(-234.25 312.21) rotate(-51.86)"/><circle class="cls-2" cx="300.2" cy="383.35" r="7.44"/><circle class="cls-2" cx="336.53" cy="376.03" r="7.44"/><circle class="cls-2" cx="386.02" cy="352.23" r="7.44"/><circle class="cls-2" cx="365.67" cy="323.58" r="7.44"/><circle class="cls-2" cx="418.46" cy="298.61" r="7.44"/><circle class="cls-2" cx="392.05" cy="262.27" r="7.44"/><circle class="cls-2" cx="403.58" cy="228.63" r="7.44"/><circle class="cls-2" cx="429.37" cy="199.36" r="7.44" transform="translate(7.4 413.93) rotate(-51.86)"/><circle class="cls-2" cx="402.96" cy="172.1" r="7.44"/><circle class="cls-2" cx="374.05" cy="115.36" r="7.44"/><circle class="cls-2" cx="369.16" cy="67.98" r="7.44"/><circle class="cls-2" cx="308.17" cy="61.72" r="7.44"/><circle class="cls-2" cx="271.23" cy="45.24" r="7.44"/><circle class="cls-2" cx="233.34" cy="33.69" r="7.44"/><circle class="cls-2" cx="225.91" cy="7.44" r="7.44"/><circle class="cls-2" cx="184.97" cy="34.32" r="7.44"/><circle class="cls-2" cx="152.74" cy="47.28" r="7.44" transform="translate(38.86 159.52) rotate(-61.78)"/><circle class="cls-2" cx="107.18" cy="40.27" r="7.44" transform="translate(21.02 115.68) rotate(-61.78)"/><circle class="cls-2" cx="156.14" cy="387.37" r="7.44" transform="translate(-244.95 270.93) rotate(-51.86)"/><circle class="cls-2" cx="210.58" cy="433.95" r="7.44" transform="translate(-260.77 331.57) rotate(-51.86)"/><circle class="cls-2" cx="65.87" cy="357.3" r="7.44"/></g><g id="dots1"><circle class="cls-2" cx="21.22" cy="218.62" r="3.72" transform="translate(-138.23 67.56) rotate(-41)"/><circle class="cls-2" cx="10.23" cy="193.54" r="3.72" transform="translate(-124.48 54.19) rotate(-41)"/><circle class="cls-2" cx="32.83" cy="206.88" r="3.72" transform="translate(-127.68 72.29) rotate(-41)"/><circle class="cls-2" cx="7.96" cy="178.51" r="3.72" transform="translate(-115.17 49.01) rotate(-41)"/><circle class="cls-2" cx="58.44" cy="152.06" r="3.72" transform="translate(-85.43 75.65) rotate(-41)"/><circle class="cls-2" cx="40.16" cy="176.4" r="3.72" transform="translate(-105.89 69.63) rotate(-41)"/><circle class="cls-2" cx="20.04" cy="168" r="3.72" transform="translate(-105.31 54.36) rotate(-41)"/><circle class="cls-2" cx="42.24" cy="193.54" r="3.72" transform="translate(-116.62 75.2) rotate(-41)"/><circle class="cls-2" cx="22.91" cy="141.43" r="3.72" transform="translate(-87.17 49.73) rotate(-41)"/><circle class="cls-2" cx="43.96" cy="139.82" r="3.72" transform="translate(-80.96 63.14) rotate(-41)"/><circle class="cls-2" cx="33.44" cy="118.34" r="3.72" transform="translate(-69.44 50.98) rotate(-41)"/><circle class="cls-2" cx="262.31" cy="74.04" r="3.72" transform="translate(15.77 190.27) rotate(-41)"/><circle class="cls-2" cx="80.65" cy="99.67" r="3.72" transform="translate(-45.61 77.37) rotate(-41)"/><circle class="cls-2" cx="45.46" cy="99.67" r="3.72" transform="translate(-54.24 54.28) rotate(-41)"/><circle class="cls-2" cx="90.44" cy="86.65" r="3.72" transform="translate(-34.67 80.59) rotate(-41)"/><circle class="cls-2" cx="67.63" cy="73.36" r="3.72" transform="translate(-31.54 62.37) rotate(-41)"/><circle class="cls-2" cx="113.27" cy="100.37" r="3.72" transform="translate(-38.06 98.94) rotate(-41)"/><circle class="cls-2" cx="101.18" cy="61.72" r="3.72" transform="translate(-15.67 81.53) rotate(-41)"/><circle class="cls-2" cx="87.26" cy="51.37" r="3.72" transform="translate(-12.3 69.85) rotate(-41)"/><circle class="cls-2" cx="126.77" cy="63.78" r="3.72" transform="translate(-10.74 98.82) rotate(-41)"/><circle class="cls-2" cx="113.27" cy="33.69" r="3.72" transform="translate(5.69 82.58) rotate(-41)"/><circle class="cls-2" cx="141.58" cy="22.63" r="3.72" transform="translate(19.89 98.44) rotate(-41)"/><circle class="cls-2" cx="138.44" cy="49.43" r="3.72" transform="translate(1.53 102.96) rotate(-41)"/><circle class="cls-2" cx="161.24" cy="45.24" r="3.72" transform="translate(9.87 116.89) rotate(-41)"/><circle class="cls-2" cx="186.35" cy="17.78" r="3.72" transform="translate(51.22 147.33) rotate(-49.24)"/><circle class="cls-2" cx="203.39" cy="11.63" r="3.72" transform="translate(61.8 158.1) rotate(-49.24)"/><circle class="cls-2" cx="215.94" cy="36.11" r="3.72" transform="translate(47.61 176.11) rotate(-49.24)"/><circle class="cls-2" cx="225.91" cy="9.84" r="3.72" transform="translate(70.97 174.54) rotate(-49.24)"/><circle class="cls-2" cx="257.82" cy="33.69" r="3.72" transform="translate(63.98 206.99) rotate(-49.24)"/><circle class="cls-2" cx="236.94" cy="37.01" r="3.72" transform="translate(54.22 192.33) rotate(-49.24)"/><circle class="cls-2" cx="250.38" cy="24.71" r="3.72" transform="translate(68.2 198.24) rotate(-49.24)"/><circle class="cls-2" cx="211.86" cy="61.72" r="3.72" transform="translate(26.8 181.91) rotate(-49.24)"/><circle class="cls-2" cx="279.44" cy="14.12" r="3.72" transform="translate(86.31 216.58) rotate(-49.24)"/><circle class="cls-2" cx="273.69" cy="35.53" r="3.72" transform="translate(68.1 219.65) rotate(-49.24)"/><circle class="cls-2" cx="296.76" cy="35.53" r="3.72" transform="translate(76.11 237.12) rotate(-49.24)"/><circle class="cls-2" cx="300.73" cy="46.24" r="3.72" transform="translate(69.37 243.85) rotate(-49.24)"/><circle class="cls-2" cx="317.22" cy="84.88" r="3.72" transform="translate(45.83 269.75) rotate(-49.24)"/><circle class="cls-2" cx="313.64" cy="31.26" r="3.72" transform="translate(85.2 248.43) rotate(-49.24)"/><circle class="cls-2" cx="327.44" cy="48.69" r="3.72" transform="translate(76.78 264.93) rotate(-49.24)"/><circle class="cls-2" cx="342.86" cy="49.43" r="3.72" transform="translate(81.58 276.87) rotate(-49.24)"/><circle class="cls-2" cx="350.08" cy="74.04" r="3.72" transform="translate(65.45 290.89) rotate(-49.24)"/><circle class="cls-2" cx="359.19" cy="80.97" r="3.72" transform="translate(63.36 300.19) rotate(-49.24)"/><circle class="cls-2" cx="367.44" cy="65.71" r="3.72" transform="translate(77.78 301.14) rotate(-49.24)"/><circle class="cls-2" cx="356.18" cy="113.19" r="3.72" transform="translate(37.91 309.09) rotate(-49.24)"/><circle class="cls-2" cx="380.34" cy="86.65" r="3.72" transform="translate(66.4 318.18) rotate(-49.24)"/><circle class="cls-2" cx="400.45" cy="125.67" r="3.72" transform="translate(43.82 346.96) rotate(-49.24)"/><circle class="cls-2" cx="381.19" cy="102.71" r="3.72" transform="translate(54.53 324.4) rotate(-49.24)"/><circle class="cls-2" cx="383.71" cy="132.8" r="3.72" transform="translate(32.61 336.76) rotate(-49.24)"/><circle class="cls-2" cx="197.01" cy="401.48" r="3.72" transform="translate(-186.34 171.17) rotate(-32.87)"/><circle class="cls-2" cx="171.25" cy="426.45" r="3.72" transform="translate(-204.01 161.19) rotate(-32.87)"/><circle class="cls-2" cx="217.87" cy="414.41" r="3.72" transform="translate(-190.02 184.56) rotate(-32.87)"/><circle class="cls-2" cx="157.35" cy="404.94" r="3.72" transform="translate(-268.68 319.93) rotate(-57.48)"/><circle class="cls-2" cx="142.43" cy="354.95" r="3.72" transform="translate(-169.82 134.1) rotate(-32.87)"/><circle class="cls-2" cx="158.7" cy="388.61" r="3.72" transform="translate(-185.49 148.32) rotate(-32.87)"/><circle class="cls-2" cx="136.72" cy="418.49" r="3.72" transform="translate(-205.22 141.18) rotate(-32.87)"/><circle class="cls-2" cx="174.97" cy="395.28" r="3.72" transform="translate(-252.92 456.66) rotate(-74.29)"/><circle class="cls-2" cx="118.87" cy="399.91" r="3.72" transform="translate(-197.99 128.52) rotate(-32.87)"/><circle class="cls-2" cx="102.13" cy="369.73" r="3.72" transform="translate(-184.3 114.6) rotate(-32.87)"/><circle class="cls-2" cx="100.54" cy="397" r="3.72" transform="translate(-199.35 118.1) rotate(-32.87)"/><circle class="cls-2" cx="84.11" cy="354.95" r="3.72" transform="translate(-179.16 102.46) rotate(-32.87)"/><circle class="cls-2" cx="80.48" cy="381.71" r="3.72" transform="translate(-194.26 104.77) rotate(-32.87)"/><circle class="cls-2" cx="66.41" cy="352.19" r="3.72" transform="translate(-180.5 92.41) rotate(-32.87)"/><circle class="cls-2" cx="51.82" cy="347.14" r="3.72" transform="translate(-180.09 83.68) rotate(-32.87)"/><circle class="cls-2" cx="58.44" cy="322.7" r="3.72" transform="translate(-165.77 83.36) rotate(-32.87)"/><circle class="cls-2" cx="45.04" cy="312.27" r="3.72" transform="translate(-162.25 74.42) rotate(-32.87)"/><circle class="cls-2" cx="32.83" cy="324.59" r="3.72" transform="translate(-170.89 69.77) rotate(-32.87)"/><circle class="cls-2" cx="40.16" cy="288.87" r="3.72" transform="translate(-150.33 68.03) rotate(-32.87)"/><circle class="cls-2" cx="55.84" cy="302.35" r="3.72" transform="translate(-155.14 78.7) rotate(-32.87)"/><circle class="cls-2" cx="11.35" cy="261" r="3.72" transform="translate(-139.82 47.93) rotate(-32.87)"/><circle class="cls-2" cx="32.6" cy="275.22" r="3.72" transform="translate(-144.14 61.74) rotate(-32.87)"/><circle class="cls-2" cx="43.96" cy="257.01" r="3.72" transform="translate(-132.44 64.99) rotate(-32.87)"/><circle class="cls-2" cx="426.7" cy="201.96" r="3.72" transform="translate(-19.78 355.29) rotate(-44.28)"/><circle class="cls-2" cx="438.4" cy="213.95" r="3.72" transform="translate(-24.83 366.87) rotate(-44.28)"/><circle class="cls-2" cx="423.52" cy="217.42" r="3.72" transform="translate(-31.48 357.46) rotate(-44.28)"/><circle class="cls-2" cx="434.24" cy="233.04" r="3.72" transform="translate(-39.35 369.39) rotate(-44.28)"/><circle class="cls-2" cx="414.88" cy="262.73" r="3.72" transform="translate(-65.57 364.3) rotate(-44.28)"/><circle class="cls-2" cx="360.69" cy="278.7" r="3.72" transform="translate(-92.12 331) rotate(-44.28)"/><circle class="cls-2" cx="435.92" cy="245.19" r="3.72" transform="translate(-47.35 374.01) rotate(-44.28)"/><circle class="cls-2" cx="377.58" cy="231.9" r="3.72" transform="translate(-54.65 329.5) rotate(-44.28)"/><circle class="cls-2" cx="426.6" cy="277.6" r="3.72" transform="translate(-72.63 376.71) rotate(-44.28)"/><circle class="cls-2" cx="394.06" cy="268.76" r="3.72" transform="translate(-75.7 351.48) rotate(-44.28)"/><circle class="cls-2" cx="423.3" cy="290.46" r="3.72" transform="translate(-82.55 378.06) rotate(-44.28)"/><circle class="cls-2" cx="376.89" cy="295.44" r="3.72" transform="translate(-99.2 347.07) rotate(-44.28)"/><circle class="cls-2" cx="377.58" cy="316.14" r="3.72" transform="translate(-113.46 353.43) rotate(-44.28)"/><circle class="cls-2" cx="409.31" cy="322.09" r="3.72" transform="translate(-108.6 377.27) rotate(-44.28)"/><circle class="cls-2" cx="390.75" cy="334.33" r="3.72" transform="translate(-122.42 367.79) rotate(-44.28)"/><circle class="cls-2" cx="388.68" cy="349.63" r="3.72" transform="translate(-133.69 370.69) rotate(-44.28)"/><circle class="cls-2" cx="365.67" cy="338.05" r="3.72" transform="translate(-132.14 351.34) rotate(-44.28)"/><circle class="cls-2" cx="350.25" cy="367.25" r="3.72" transform="translate(-156.91 348.87) rotate(-44.28)"/><circle class="cls-2" cx="371.69" cy="371.4" r="3.72" transform="translate(-153.71 365.02) rotate(-44.28)"/><circle class="cls-2" cx="327.25" cy="351.16" r="3.72" transform="translate(-152.21 328.24) rotate(-44.28)"/><circle class="cls-2" cx="336.53" cy="365.45" r="3.72" transform="translate(-159.55 338.78) rotate(-44.28)"/><circle class="cls-2" cx="298.36" cy="379.34" r="3.72" transform="translate(-180.09 316.07) rotate(-44.28)"/><circle class="cls-2" cx="327.25" cy="382.77" r="3.72" transform="translate(-174.28 337.22) rotate(-44.28)"/><circle class="cls-2" cx="253.98" cy="388.61" r="3.72" transform="translate(-199.17 287.73) rotate(-44.28)"/><circle class="cls-2" cx="413.03" cy="147.27" r="3.72" transform="translate(31.82 363.99) rotate(-49.24)"/><circle class="cls-2" cx="423.3" cy="156.13" r="3.72" transform="translate(28.68 374.84) rotate(-49.24)"/><circle class="cls-2" cx="414.88" cy="182.52" r="3.72" transform="translate(5.77 377.63) rotate(-49.24)"/><circle class="cls-2" cx="393.82" cy="210.69" r="3.72" transform="translate(-22.88 371.45) rotate(-49.24)"/><circle class="cls-2" cx="201.84" cy="421.85" r="3.72" transform="translate(-249.47 299.33) rotate(-49.24)"/><circle class="cls-2" cx="229.82" cy="388.61" r="3.72" transform="translate(-174.1 186.92) rotate(-32.87)"/><circle class="cls-2" cx="228.58" cy="422.32" r="3.72" transform="translate(-192.6 191.64) rotate(-32.87)"/><circle class="cls-2" cx="181.39" cy="49.03" r="3.72" transform="translate(2.42 106.28) rotate(-32.87)"/><circle class="cls-2" cx="257.41" cy="429.28" r="3.72" transform="translate(-191.76 208.4) rotate(-32.87)"/><circle class="cls-2" cx="269.55" cy="404.94" r="3.72" transform="translate(-176.61 211.09) rotate(-32.87)"/><circle class="cls-2" cx="279.45" cy="372.71" r="3.72" transform="translate(-157.53 211.3) rotate(-32.87)"/><circle class="cls-2" cx="280.43" cy="414.41" r="3.72" transform="translate(-180 218.51) rotate(-32.87)"/><circle class="cls-2" cx="58.44" cy="240.16" r="3.72" transform="translate(-143.23 97.26) rotate(-41)"/><circle class="cls-2" cx="23.82" cy="235" r="3.72" transform="translate(-148.34 73.28) rotate(-41)"/><circle class="cls-2" cx="11.35" cy="231.9" r="3.72" transform="translate(-149.37 64.34) rotate(-41)"/><circle class="cls-2" cx="245.51" cy="367.25" r="3.72" transform="translate(-160 192.01) rotate(-32.87)"/><circle class="cls-2" cx="299.17" cy="351.16" r="3.72" transform="translate(-142.68 218.55) rotate(-32.87)"/></g><g id="dots2"><circle class="cls-5" cx="423.3" cy="217.21" r="3.72" transform="translate(-18.35 394.15) rotate(-49)"/><circle class="cls-5" cx="435.92" cy="196.82" r="3.72" transform="translate(1.38 396.66) rotate(-49)"/><circle class="cls-5" cx="411.8" cy="197.74" r="3.72" transform="translate(-7.61 378.78) rotate(-49)"/><circle class="cls-5" cx="429.05" cy="185.74" r="3.72" transform="translate(7.37 387.67) rotate(-49)"/><circle class="cls-5" cx="405.97" cy="165.61" r="3.72" transform="translate(14.63 363.33) rotate(-49)"/><circle class="cls-5" cx="400.56" cy="179.16" r="3.72" transform="translate(2.55 363.91) rotate(-49)"/><circle class="cls-5" cx="429.05" cy="170.56" r="3.72" transform="translate(18.83 382.45) rotate(-49)"/><circle class="cls-5" cx="402.28" cy="192.14" r="3.72" transform="translate(-6.66 369.66) rotate(-49)"/><circle class="cls-5" cx="418.87" cy="132.8" r="3.72" transform="translate(43.83 361.78) rotate(-49)"/><circle class="cls-5" cx="400.56" cy="138.42" r="3.72" transform="translate(33.3 349.9) rotate(-49)"/><circle class="cls-5" cx="411.8" cy="119.83" r="3.72" transform="translate(51.19 351.98) rotate(-49)"/><circle class="cls-5" cx="386.08" cy="113.19" r="3.72" transform="translate(47.35 330.29) rotate(-49)"/><circle class="cls-5" cx="363.87" cy="98.26" r="3.72" transform="translate(50.98 308.4) rotate(-49)"/><circle class="cls-5" cx="399.06" cy="98.26" r="3.72" transform="translate(63.08 334.95) rotate(-49)"/><circle class="cls-5" cx="394.06" cy="87.77" r="3.72" transform="translate(69.28 327.57) rotate(-49)"/><circle class="cls-5" cx="376.89" cy="71.95" r="3.72" transform="translate(75.31 309.17) rotate(-49)"/><circle class="cls-5" cx="343.84" cy="87.77" r="3.72" transform="translate(52.01 289.67) rotate(-49)"/><circle class="cls-5" cx="343.34" cy="60.31" r="3.72" transform="translate(72.56 279.85) rotate(-49)"/><circle class="cls-5" cx="357.26" cy="49.96" r="3.72" transform="translate(85.16 286.8) rotate(-49)"/><circle class="cls-5" cx="317.75" cy="62.37" r="3.72" transform="translate(62.21 261.24) rotate(-49)"/><circle class="cls-5" cx="334.69" cy="40.19" r="3.72" transform="translate(84.77 266.4) rotate(-49)"/><circle class="cls-5" cx="297.35" cy="19.7" r="3.72" transform="translate(87.4 231.18) rotate(-49)"/><circle class="cls-5" cx="313.66" cy="42.38" r="3.72" transform="translate(75.89 251.29) rotate(-49)"/><circle class="cls-5" cx="288.17" cy="55.37" r="3.72" transform="translate(57.32 236.51) rotate(-49)"/><circle class="cls-5" cx="268.95" cy="23.1" r="3.72" transform="translate(50.14 181.19) rotate(-40.76)"/><circle class="cls-5" cx="241.42" cy="7.44" r="3.72" transform="translate(53.69 159.41) rotate(-40.76)"/><circle class="cls-5" cx="405.19" cy="252.8" r="3.72" transform="translate(-66.77 325.84) rotate(-40.76)"/><circle class="cls-5" cx="214.22" cy="4.08" r="3.72" transform="translate(49.29 140.85) rotate(-40.76)"/><circle class="cls-5" cx="195.87" cy="32.15" r="3.72" transform="translate(26.51 135.67) rotate(-40.76)"/><circle class="cls-5" cx="157.35" cy="71.19" r="3.72" transform="translate(-8.32 120) rotate(-40.76)"/><circle class="cls-5" cx="221.53" cy="23.1" r="3.72" transform="translate(38.64 150.23) rotate(-40.76)"/><circle class="cls-5" cx="232.72" cy="49.96" r="3.72" transform="translate(23.82 164.05) rotate(-40.76)"/><circle class="cls-5" cx="173.51" cy="11.63" r="3.72" transform="translate(34.49 116.1) rotate(-40.76)"/><circle class="cls-5" cx="170.83" cy="34.12" r="3.72" transform="translate(19.15 119.8) rotate(-40.76)"/><circle class="cls-5" cx="154.85" cy="11.61" r="3.72" transform="translate(29.98 103.91) rotate(-40.76)"/><circle class="cls-5" cx="148.56" cy="37.82" r="3.72" transform="translate(11.34 106.16) rotate(-40.76)"/><circle class="cls-5" cx="119.31" cy="80.97" r="3.72" transform="translate(-23.93 97.53) rotate(-40.76)"/><circle class="cls-5" cx="130.49" cy="32.61" r="3.72" transform="translate(10.36 93.1) rotate(-40.76)"/><circle class="cls-5" cx="117.08" cy="47.28" r="3.72" transform="translate(-2.47 87.91) rotate(-40.76)"/><circle class="cls-5" cx="101.66" cy="48.02" r="3.72" transform="translate(-6.7 78.02) rotate(-40.76)"/><circle class="cls-5" cx="107.18" cy="72.22" r="3.72" transform="translate(-21.15 87.49) rotate(-40.76)"/><circle class="cls-5" cx="145.96" cy="103.37" r="3.72" transform="translate(-32.09 120.36) rotate(-40.76)"/><circle class="cls-5" cx="85.72" cy="71.19" r="3.72" transform="translate(-25.69 73.23) rotate(-40.76)"/><circle class="cls-5" cx="87.41" cy="117.31" r="3.72" transform="translate(-55.39 85.51) rotate(-40.76)"/><circle class="cls-5" cx="53.97" cy="85.24" r="3.72" transform="translate(-42.56 55.9) rotate(-40.76)"/><circle class="cls-5" cx="53.62" cy="117.31" r="3.72" transform="translate(-63.58 63.46) rotate(-40.76)"/><circle class="cls-5" cx="63.33" cy="106.36" r="3.72" transform="translate(-54.08 67.14) rotate(-40.76)"/><circle class="cls-5" cx="60.81" cy="131.39" r="3.72" transform="translate(-71.03 71.57) rotate(-40.76)"/><circle class="cls-5" cx="255.47" cy="412.23" r="3.72" transform="translate(-229.41 403.11) rotate(-57.13)"/><circle class="cls-5" cx="273.27" cy="425.04" r="3.72" transform="translate(-232.04 423.91) rotate(-57.13)"/><circle class="cls-5" cx="241.68" cy="404.94" r="3.72" transform="translate(-229.6 388.19) rotate(-57.13)"/><circle class="cls-5" cx="294.65" cy="418.49" r="3.72" transform="translate(-178.78 224.02) rotate(-32.52)"/><circle class="cls-5" cx="312.71" cy="388.61" r="3.72" transform="translate(-183.4 440.38) rotate(-57.13)"/><circle class="cls-5" cx="294.65" cy="394.41" r="3.72" transform="translate(-196.53 427.86) rotate(-57.13)"/><circle class="cls-5" cx="311.13" cy="411.93" r="3.72" transform="translate(-203.71 449.72) rotate(-57.13)"/><circle class="cls-5" cx="276.49" cy="390.02" r="3.72" transform="translate(-95.29 89.45) rotate(-15.71)"/><circle class="cls-5" cx="338.06" cy="399" r="3.72" transform="translate(-180.53 466.42) rotate(-57.13)"/><circle class="cls-5" cx="317.26" cy="371.4" r="3.72" transform="translate(-166.86 436.34) rotate(-57.13)"/><circle class="cls-5" cx="339.38" cy="382.77" r="3.72" transform="translate(-166.3 460.12) rotate(-57.13)"/><circle class="cls-5" cx="350.25" cy="347.44" r="3.72" transform="translate(-131.65 453.09) rotate(-57.13)"/><circle class="cls-5" cx="356.02" cy="316.14" r="3.72" transform="translate(-102.72 443.62) rotate(-57.13)"/><circle class="cls-5" cx="354.7" cy="382.77" r="3.72" transform="translate(-159.29 472.98) rotate(-57.13)"/><circle class="cls-5" cx="375.69" cy="352.86" r="3.72" transform="translate(-124.57 476.94) rotate(-57.13)"/><circle class="cls-5" cx="402.09" cy="338.05" r="3.72" transform="translate(-100.06 492.33) rotate(-57.13)"/><circle class="cls-5" cx="379.84" cy="334.33" r="3.72" transform="translate(-107.11 471.94) rotate(-57.13)"/><circle class="cls-5" cx="399.48" cy="310.86" r="3.72" transform="translate(-78.42 477.71) rotate(-57.13)"/><circle class="cls-5" cx="414.71" cy="310.97" r="3.72" transform="translate(-71.54 490.55) rotate(-57.13)"/><circle class="cls-5" cx="393.82" cy="285.82" r="3.72" transform="translate(-59.97 461.5) rotate(-57.13)"/><circle class="cls-5" cx="408.06" cy="298.46" r="3.72" transform="translate(-64.07 479.24) rotate(-57.13)"/><circle class="cls-5" cx="433.17" cy="259.59" r="3.72" transform="translate(-19.94 482.56) rotate(-57.13)"/><circle class="cls-5" cx="413.03" cy="278.95" r="3.72" transform="translate(-45.41 474.49) rotate(-57.13)"/><circle class="cls-5" cx="383.71" cy="256.55" r="3.72" transform="translate(-40.01 439.62) rotate(-57.13)"/><circle class="cls-5" cx="17.82" cy="200.55" r="3.72" transform="translate(-138.2 73.28) rotate(-45.72)"/><circle class="cls-5" cx="6.12" cy="212.54" r="3.72" transform="translate(-150.32 68.53) rotate(-45.72)"/><circle class="cls-5" cx="42.24" cy="217.71" r="3.72" transform="translate(-143.12 95.95) rotate(-45.72)"/><circle class="cls-5" cx="3.72" cy="240.16" r="3.72" transform="translate(-170.81 75.15) rotate(-45.72)"/><circle class="cls-5" cx="29.64" cy="261.32" r="3.72" transform="translate(-178.14 100.09) rotate(-45.72)"/><circle class="cls-5" cx="34.31" cy="243.78" r="3.72" transform="translate(-164.17 98.14) rotate(-45.72)"/><circle class="cls-5" cx="13.74" cy="251.01" r="3.72" transform="translate(-175.56 85.6) rotate(-45.72)"/><circle class="cls-5" cx="37.37" cy="226.78" r="3.72" transform="translate(-151.08 95.2) rotate(-45.72)"/><circle class="cls-5" cx="17.92" cy="276.2" r="3.72" transform="translate(-192.32 96.19) rotate(-45.72)"/><circle class="cls-5" cx="49.02" cy="272.49" r="3.72" transform="translate(-180.29 117.34) rotate(-45.72)"/><circle class="cls-5" cx="23.73" cy="298.43" r="3.72" transform="translate(-206.49 107.06) rotate(-45.72)"/><circle class="cls-5" cx="76.33" cy="290.46" r="3.72" transform="translate(-184.91 142.31) rotate(-45.72)"/><circle class="cls-5" cx="74.73" cy="332.34" r="3.72" transform="translate(-215.37 153.8) rotate(-45.72)"/><circle class="cls-5" cx="31.25" cy="310.96" r="3.72" transform="translate(-213.19 116.23) rotate(-45.72)"/><circle class="cls-5" cx="37.37" cy="337.29" r="3.72" transform="translate(-230.19 128.55) rotate(-45.72)"/><circle class="cls-5" cx="61.96" cy="337.29" r="3.72" transform="translate(-222.77 146.15) rotate(-45.72)"/><circle class="cls-5" cx="87.44" cy="324.31" r="3.72" transform="translate(-205.79 160.48) rotate(-45.72)"/><circle class="cls-5" cx="96.16" cy="346.1" r="3.72" transform="translate(-218.76 173.3) rotate(-45.72)"/><circle class="cls-5" cx="66.41" cy="364.74" r="3.72" transform="translate(-241.08 157.62) rotate(-45.72)"/><circle class="cls-5" cx="116.55" cy="354.95" r="3.72" transform="translate(-218.94 190.57) rotate(-45.72)"/><circle class="cls-5" cx="96.16" cy="382.35" r="3.72" transform="translate(-244.71 184.24) rotate(-45.72)"/><circle class="cls-5" cx="132.26" cy="404.94" r="3.72" transform="translate(-249.99 216.9) rotate(-45.72)"/><circle class="cls-5" cx="117.27" cy="381.36" r="3.72" transform="translate(-237.63 199.06) rotate(-45.72)"/><circle class="cls-5" cx="142.43" cy="381.71" r="3.72" transform="translate(-230.29 217.17) rotate(-45.72)"/><circle class="cls-5" cx="32.72" cy="132.74" r="3.72" transform="translate(-78.73 53.55) rotate(-40.76)"/><circle class="cls-5" cx="46.55" cy="166.54" r="3.72" transform="translate(-97.43 70.78) rotate(-40.76)"/><circle class="cls-5" cx="27.03" cy="158.11" r="3.72" transform="translate(-96.67 55.99) rotate(-40.76)"/><circle class="cls-5" cx="29.64" cy="181.11" r="3.72" transform="translate(-111.05 63.27) rotate(-40.76)"/><circle class="cls-5" cx="63.96" cy="193.43" r="3.72" transform="translate(-110.77 88.67) rotate(-40.76)"/><circle class="cls-5" cx="241.68" cy="433.26" r="3.72" transform="translate(-224.25 262.86) rotate(-40.76)"/><circle class="cls-5" cx="215.94" cy="397" r="3.72" transform="translate(-234.7 362.94) rotate(-57.13)"/><circle class="cls-5" cx="219.14" cy="433.26" r="3.72" transform="translate(-263.7 382.21) rotate(-57.13)"/><circle class="cls-5" cx="263.13" cy="47.62" r="3.72" transform="translate(80.33 242.79) rotate(-57.13)"/><circle class="cls-5" cx="187.11" cy="427.87" r="3.72" transform="translate(-273.82 352.84) rotate(-57.13)"/><circle class="cls-5" cx="174.97" cy="408.25" r="3.72" transform="translate(-262.89 333.67) rotate(-57.13)"/><circle class="cls-5" cx="169.88" cy="376.03" r="3.72" transform="translate(-238.15 314.66) rotate(-57.13)"/><circle class="cls-5" cx="157.35" cy="423.54" r="3.72" transform="translate(-283.79 325.87) rotate(-57.13)"/><circle class="cls-5" cx="402.28" cy="222.76" r="3.72" transform="translate(-29.77 380.2) rotate(-49)"/><circle class="cls-5" cx="414.86" cy="235.95" r="3.72" transform="translate(-35.4 394.23) rotate(-49)"/><circle class="cls-5" cx="424.92" cy="228.63" r="3.72" transform="translate(-26.41 399.3) rotate(-49)"/></g><g id="smallDots"><circle class="cls-3" cx="96.13" cy="93.2" r="1.86"/><circle class="cls-3" cx="69.48" cy="85.18" r="1.86"/><circle class="cls-3" cx="69.48" cy="62.28" r="1.86"/><circle class="cls-3" cx="76.23" cy="65.88" r="1.86"/><circle class="cls-3" cx="74.82" cy="78.13" r="1.86"/><circle class="cls-3" cx="85.86" cy="80.97" r="1.86"/><circle class="cls-3" cx="80.01" cy="89.66" r="1.86"/><circle class="cls-3" cx="97.19" cy="77.3" r="1.86"/><circle class="cls-3" cx="87.26" cy="60.44" r="1.86"/><circle class="cls-3" cx="99.33" cy="67.49" r="1.86"/><circle class="cls-3" cx="110.18" cy="88.51" r="1.86"/><circle class="cls-3" cx="105.68" cy="37.18" r="1.86"/><circle class="cls-3" cx="133.33" cy="34.02" r="1.86"/><circle class="cls-3" cx="142.37" cy="55.06" r="1.86"/><circle class="cls-3" cx="134.75" cy="54.42" r="1.86"/><circle class="cls-3" cx="131.21" cy="42.61" r="1.86"/><circle class="cls-3" cx="119.95" cy="44.36" r="1.86"/><circle class="cls-3" cx="121.89" cy="34.07" r="1.86"/><circle class="cls-3" cx="110.98" cy="52.21" r="1.86"/><circle class="cls-3" cx="126.77" cy="63.78" r="1.86"/><circle class="cls-3" cx="112.89" cy="62.06" r="1.86"/><circle class="cls-3" cx="94.62" cy="47.04" r="1.86"/><circle class="cls-3" cx="164.64" cy="78.55" r="1.86"/><circle class="cls-3" cx="145.08" cy="98.34" r="1.86"/><circle class="cls-3" cx="124.85" cy="87.62" r="1.86"/><circle class="cls-3" cx="131.19" cy="83.34" r="1.86"/><circle class="cls-3" cx="141.35" cy="90.32" r="1.86"/><circle class="cls-3" cx="149.02" cy="81.9" r="1.86"/><circle class="cls-3" cx="153.96" cy="91.13" r="1.86"/><circle class="cls-3" cx="151.09" cy="70.17" r="1.86"/><circle class="cls-3" cx="131.54" cy="71.05" r="1.86"/><circle class="cls-3" cx="143.43" cy="63.68" r="1.86"/><circle class="cls-3" cx="167.08" cy="63.94" r="1.86"/><circle class="cls-3" cx="110.91" cy="132.28" r="1.86"/><circle class="cls-3" cx="84.27" cy="124.27" r="1.86"/><circle class="cls-3" cx="84.27" cy="101.37" r="1.86"/><circle class="cls-3" cx="91.01" cy="104.97" r="1.86"/><circle class="cls-3" cx="76.33" cy="110.91" r="1.86"/><circle class="cls-3" cx="100.64" cy="120.06" r="1.86"/><circle class="cls-3" cx="94.79" cy="128.74" r="1.86"/><circle class="cls-3" cx="111.98" cy="116.39" r="1.86"/><circle class="cls-3" cx="102.04" cy="99.52" r="1.86"/><circle class="cls-3" cx="114.11" cy="106.58" r="1.86"/><circle class="cls-3" cx="124.97" cy="127.6" r="1.86"/><circle class="cls-3" cx="46.78" cy="130.51" r="1.86"/><circle class="cls-3" cx="37.46" cy="104.29" r="1.86"/><circle class="cls-3" cx="55.92" cy="90.73" r="1.86"/><circle class="cls-3" cx="57.01" cy="98.3" r="1.86"/><circle class="cls-3" cx="46.31" cy="104.42" r="1.86"/><circle class="cls-3" cx="53.97" cy="108.46" r="1.86"/><circle class="cls-3" cx="40.1" cy="115.43" r="1.86"/><circle class="cls-3" cx="60.22" cy="121.95" r="1.86"/><circle class="cls-3" cx="67.93" cy="103.96" r="1.86"/><circle class="cls-3" cx="69.39" cy="117.87" r="1.86"/><circle class="cls-3" cx="58.88" cy="139.06" r="1.86"/><circle class="cls-3" cx="75.06" cy="156.59" r="1.86"/><circle class="cls-3" cx="47.52" cy="160.56" r="1.86"/><circle class="cls-3" cx="37.86" cy="139.79" r="1.86"/><circle class="cls-3" cx="41.58" cy="147.96" r="1.86"/><circle class="cls-3" cx="49.38" cy="151.91" r="1.86"/><circle class="cls-3" cx="60.59" cy="149.83" r="1.86"/><circle class="cls-3" cx="58.95" cy="160.17" r="1.86"/><circle class="cls-3" cx="69.32" cy="141.73" r="1.86"/><circle class="cls-3" cx="53.2" cy="130.62" r="1.86"/><circle class="cls-3" cx="67.12" cy="131.93" r="1.86"/><circle class="cls-3" cx="85.83" cy="146.41" r="1.86"/><circle class="cls-3" cx="47.96" cy="199.15" r="1.86"/><circle class="cls-3" cx="28.23" cy="217.22" r="1.86"/><circle class="cls-3" cx="7.2" cy="201.19" r="1.86"/><circle class="cls-3" cx="14.18" cy="198.07" r="1.86"/><circle class="cls-3" cx="22.98" cy="206.71" r="1.86"/><circle class="cls-3" cx="32" cy="199.74" r="1.86"/><circle class="cls-3" cx="35.27" cy="209.69" r="1.86"/><circle class="cls-3" cx="36.07" cy="188.54" r="1.86"/><circle class="cls-3" cx="16.66" cy="186.03" r="1.86"/><circle class="cls-3" cx="25.27" cy="174.02" r="1.86"/><circle class="cls-3" cx="52.9" cy="185.18" r="1.86"/><circle class="cls-3" cx="27.45" cy="125.54" r="1.86"/><circle class="cls-3" cx="30.35" cy="141.43" r="1.86"/><circle class="cls-3" cx="17.82" cy="149.24" r="1.86"/><circle class="cls-3" cx="37.19" cy="156.66" r="1.86"/><circle class="cls-3" cx="35.27" cy="167.28" r="1.86"/><circle class="cls-3" cx="61.79" cy="175.06" r="1.86"/><circle class="cls-3" cx="78.96" cy="176.4" r="1.86"/><circle class="cls-3" cx="11.35" cy="161.05" r="1.86"/><circle class="cls-3" cx="70.72" cy="183.5" r="1.86"/><circle class="cls-3" cx="58.44" cy="203.1" r="1.86"/><circle class="cls-3" cx="58.84" cy="293.61" r="1.86"/><circle class="cls-3" cx="36.07" cy="313.72" r="1.86"/><circle class="cls-3" cx="24.35" cy="308.02" r="1.86"/><circle class="cls-3" cx="11.35" cy="280.08" r="1.86"/><circle class="cls-3" cx="31.91" cy="300.65" r="1.86"/><circle class="cls-3" cx="32.83" cy="293.61" r="1.86"/><circle class="cls-3" cx="44.51" cy="299.57" r="1.86"/><circle class="cls-3" cx="38.54" cy="279.26" r="1.86"/><circle class="cls-3" cx="19.34" cy="283.05" r="1.86"/><circle class="cls-3" cx="30" cy="274" r="1.86"/><circle class="cls-3" cx="58.55" cy="270.72" r="1.86"/><circle class="cls-3" cx="3.5" cy="257.97" r="1.86"/><circle class="cls-3" cx="5.71" cy="223.39" r="1.86"/><circle class="cls-3" cx="25.08" cy="225.18" r="1.86"/><circle class="cls-3" cx="25.28" cy="243.19" r="1.86"/><circle class="cls-3" cx="17.08" cy="235.68" r="1.86"/><circle class="cls-3" cx="17.82" cy="244.39" r="1.86"/><circle class="cls-3" cx="5.93" cy="245.28" r="1.86"/><circle class="cls-3" cx="19.43" cy="257.94" r="1.86"/><circle class="cls-3" cx="36.07" cy="253.58" r="1.86"/><circle class="cls-3" cx="29.36" cy="259.4" r="1.86"/><circle class="cls-3" cx="9.14" cy="271.67" r="1.86"/><circle class="cls-3" cx="62.06" cy="216.04" r="1.86"/><circle class="cls-3" cx="58.55" cy="258.45" r="1.86"/><circle class="cls-3" cx="55.5" cy="249.19" r="1.86"/><circle class="cls-3" cx="60.05" cy="231.88" r="1.86"/><circle class="cls-3" cx="58.01" cy="222.2" r="1.86"/><circle class="cls-3" cx="44.02" cy="244.78" r="1.86"/><circle class="cls-3" cx="47.27" cy="234.89" r="1.86"/><circle class="cls-3" cx="51.82" cy="211.96" r="1.86"/><circle class="cls-3" cx="70.1" cy="300.51" r="1.86"/><circle class="cls-3" cx="49.02" cy="287.64" r="1.86"/><circle class="cls-3" cx="63.34" cy="310.08" r="1.86"/><circle class="cls-3" cx="77.19" cy="308.74" r="1.86"/><circle class="cls-3" cx="80.32" cy="278.26" r="1.86"/><circle class="cls-3" cx="66.41" cy="282.05" r="1.86"/><circle class="cls-3" cx="72.05" cy="344.45" r="1.86"/><circle class="cls-3" cx="44.23" cy="344.56" r="1.86"/><circle class="cls-3" cx="37.54" cy="322.66" r="1.86"/><circle class="cls-3" cx="45.05" cy="324.13" r="1.86"/><circle class="cls-3" cx="47.27" cy="336.26" r="1.86"/><circle class="cls-3" cx="53.62" cy="330.37" r="1.86"/><circle class="cls-3" cx="62.6" cy="346.3" r="1.86"/><circle class="cls-3" cx="68.43" cy="328.94" r="1.86"/><circle class="cls-3" cx="54.01" cy="315.71" r="1.86"/><circle class="cls-3" cx="67.61" cy="318.93" r="1.86"/><circle class="cls-3" cx="93.59" cy="304.85" r="1.86"/><circle class="cls-3" cx="106.02" cy="326.41" r="1.86"/><circle class="cls-3" cx="100.64" cy="353.71" r="1.86"/><circle class="cls-3" cx="77.85" cy="355.94" r="1.86"/><circle class="cls-3" cx="83.18" cy="345.05" r="1.86"/><circle class="cls-3" cx="140.43" cy="403.42" r="1.86"/><circle class="cls-3" cx="94.85" cy="337.83" r="1.86"/><circle class="cls-3" cx="104.07" cy="342.8" r="1.86"/><circle class="cls-3" cx="97.6" cy="328.94" r="1.86"/><circle class="cls-3" cx="85.87" cy="313.49" r="1.86"/><circle class="cls-3" cx="75.99" cy="318.93" r="1.86"/><circle class="cls-3" cx="137.2" cy="366.07" r="1.86"/><circle class="cls-3" cx="144.88" cy="392.82" r="1.86"/><circle class="cls-3" cx="107.75" cy="401.84" r="1.86"/><circle class="cls-3" cx="125" cy="397.59" r="1.86"/><circle class="cls-3" cx="136.06" cy="392.15" r="1.86"/><circle class="cls-3" cx="132.48" cy="381.33" r="1.86"/><circle class="cls-3" cx="142.43" cy="374.31" r="1.86"/><circle class="cls-3" cx="123.26" cy="373.78" r="1.86"/><circle class="cls-3" cx="114.46" cy="391.26" r="1.86"/><circle class="cls-3" cx="105.98" cy="379.16" r="1.86"/><circle class="cls-3" cx="125.66" cy="356.79" r="1.86"/><circle class="cls-3" cx="60.96" cy="361.04" r="1.86"/><circle class="cls-3" cx="76.91" cy="363.57" r="1.86"/><circle class="cls-3" cx="80.13" cy="377.99" r="1.86"/><circle class="cls-3" cx="93.55" cy="362.17" r="1.86"/><circle class="cls-3" cx="102.13" cy="361.19" r="1.86"/><circle class="cls-3" cx="119.05" cy="345.05" r="1.86"/><circle class="cls-3" cx="126.01" cy="329.29" r="1.86"/><circle class="cls-3" cx="89.13" cy="388" r="1.86"/><circle class="cls-3" cx="142.22" cy="330.7" r="1.86"/><circle class="cls-3" cx="129.98" cy="339.42" r="1.86"/><circle class="cls-3" cx="155.09" cy="361.04" r="1.86"/><circle class="cls-3" cx="402.11" cy="213.21" r="1.86"/><circle class="cls-3" cx="425.78" cy="236.68" r="1.86"/><circle class="cls-3" cx="442.92" cy="221.49" r="1.86"/><circle class="cls-3" cx="435.75" cy="218.83" r="1.86"/><circle class="cls-3" cx="431.54" cy="225.65" r="1.86"/><circle class="cls-3" cx="418.08" cy="221.63" r="1.86"/><circle class="cls-3" cx="415.45" cy="231.76" r="1.86"/><circle class="cls-3" cx="413.3" cy="210.71" r="1.86"/><circle class="cls-3" cx="419.23" cy="202.61" r="1.86"/><circle class="cls-3" cx="398.14" cy="206.11" r="1.86"/><circle class="cls-3" cx="421.74" cy="149.54" r="1.86"/><circle class="cls-3" cx="400.7" cy="160.43" r="1.86"/><circle class="cls-3" cx="408.76" cy="169.73" r="1.86"/><circle class="cls-3" cx="416.71" cy="162.25" r="1.86"/><circle class="cls-3" cx="422.87" cy="171.83" r="1.86"/><circle class="cls-3" cx="429.28" cy="163.56" r="1.86"/><circle class="cls-3" cx="422.94" cy="183.75" r="1.86"/><circle class="cls-3" cx="404.21" cy="185.18" r="1.86"/><circle class="cls-3" cx="414.3" cy="188.86" r="1.86"/><circle class="cls-3" cx="387.25" cy="196.85" r="1.86"/><circle class="cls-3" cx="374.28" cy="186.3" r="1.86"/><circle class="cls-3" cx="382.9" cy="165.64" r="1.86"/><circle class="cls-3" cx="395.21" cy="180.86" r="1.86"/><circle class="cls-3" cx="392.84" cy="167.08" r="1.86"/><circle class="cls-3" cx="386.73" cy="251.53" r="1.86"/><circle class="cls-3" cx="403.86" cy="236.35" r="1.86"/><circle class="cls-3" cx="396.7" cy="233.69" r="1.86"/><circle class="cls-3" cx="397.87" cy="243.98" r="1.86"/><circle class="cls-3" cx="379.02" cy="236.49" r="1.86"/><circle class="cls-3" cx="376.4" cy="246.62" r="1.86"/><circle class="cls-3" cx="374.25" cy="225.57" r="1.86"/><circle class="cls-3" cx="393.46" cy="221.82" r="1.86"/><circle class="cls-3" cx="380.17" cy="217.46" r="1.86"/><circle class="cls-3" cx="357.24" cy="223.28" r="1.86"/><circle class="cls-3" cx="406.91" cy="283.73" r="1.86"/><circle class="cls-3" cx="432.71" cy="273.32" r="1.86"/><circle class="cls-3" cx="430.63" cy="250.51" r="1.86"/><circle class="cls-3" cx="424.24" cy="254.71" r="1.86"/><circle class="cls-3" cx="426.76" cy="266.78" r="1.86"/><circle class="cls-3" cx="415.45" cy="269.45" r="1.86"/><circle class="cls-3" cx="422.64" cy="278.73" r="1.86"/><circle class="cls-3" cx="404.4" cy="268" r="1.86"/><circle class="cls-3" cx="412.76" cy="250.3" r="1.86"/><circle class="cls-3" cx="401.38" cy="258.42" r="1.86"/><circle class="cls-3" cx="392.49" cy="280.34" r="1.86"/><circle class="cls-3" cx="368.64" cy="279.86" r="1.86"/><circle class="cls-3" cx="383.93" cy="303.1" r="1.86"/><circle class="cls-3" cx="403.12" cy="294.29" r="1.86"/><circle class="cls-3" cx="397.29" cy="299.2" r="1.86"/><circle class="cls-3" cx="389.17" cy="295.98" r="1.86"/><circle class="cls-3" cx="383.29" cy="286.21" r="1.86"/><circle class="cls-3" cx="376.64" cy="294.29" r="1.86"/><circle class="cls-3" cx="383.57" cy="274.3" r="1.86"/><circle class="cls-3" cx="392.36" cy="269.45" r="1.86"/><circle class="cls-3" cx="369.12" cy="265.05" r="1.86"/><circle class="cls-3" cx="354.75" cy="328.36" r="1.86"/><circle class="cls-3" cx="354.31" cy="355.12" r="1.86"/><circle class="cls-3" cx="380.26" cy="360.23" r="1.86"/><circle class="cls-3" cx="377.96" cy="352.93" r="1.86"/><circle class="cls-3" cx="365.66" cy="352.07" r="1.86"/><circle class="cls-3" cx="364.89" cy="340.7" r="1.86"/><circle class="cls-3" cx="355.28" cy="344.86" r="1.86"/><circle class="cls-3" cx="370.58" cy="330.23" r="1.86"/><circle class="cls-3" cx="385.33" cy="343.09" r="1.86"/><circle class="cls-3" cx="388.61" cy="328.69" r="1.86"/><circle class="cls-3" cx="361.94" cy="315.41" r="1.86"/><circle class="cls-3" cx="429.37" cy="288.28" r="1.86"/><circle class="cls-3" cx="409.64" cy="303.27" r="1.86"/><circle class="cls-3" cx="412.1" cy="317.83" r="1.86"/><circle class="cls-3" cx="393.7" cy="308.26" r="1.86"/><circle class="cls-3" cx="387.03" cy="316.73" r="1.86"/><circle class="cls-3" cx="363.62" cy="302.04" r="1.86"/><circle class="cls-3" cx="351.22" cy="290.08" r="1.86"/><circle class="cls-3" cx="407.55" cy="330.51" r="1.86"/><circle class="cls-3" cx="351.37" cy="300.96" r="1.86"/><circle class="cls-3" cx="344.85" cy="323.15" r="1.86"/><circle class="cls-3" cx="276.84" cy="382.86" r="1.86"/><circle class="cls-3" cx="276.89" cy="406.97" r="1.86"/><circle class="cls-3" cx="288.93" cy="418.23" r="1.86"/><circle class="cls-3" cx="318.46" cy="409.44" r="1.86"/><circle class="cls-3" cx="289.43" cy="407.69" r="1.86"/><circle class="cls-3" cx="294.09" cy="402.33" r="1.86"/><circle class="cls-3" cx="281.89" cy="397.54" r="1.86"/><circle class="cls-3" cx="301.04" cy="388.54" r="1.86"/><circle class="cls-3" cx="310.94" cy="405.43" r="1.86"/><circle class="cls-3" cx="310.65" cy="391.45" r="1.86"/><circle class="cls-3" cx="294.17" cy="367.91" r="1.86"/><circle class="cls-3" cx="340.22" cy="400.65" r="1.86"/><circle class="cls-3" cx="364.63" cy="376.06" r="1.86"/><circle class="cls-3" cx="350.45" cy="362.76" r="1.86"/><circle class="cls-3" cx="336.83" cy="374.55" r="1.86"/><circle class="cls-3" cx="347.9" cy="375.71" r="1.86"/><circle class="cls-3" cx="340.88" cy="380.93" r="1.86"/><circle class="cls-3" cx="348.1" cy="390.41" r="1.86"/><circle class="cls-3" cx="329.67" cy="388.71" r="1.86"/><circle class="cls-3" cx="321.9" cy="373.36" r="1.86"/><circle class="cls-3" cx="321.99" cy="382.24" r="1.86"/><circle class="cls-3" cx="326.22" cy="405.51" r="1.86"/><circle class="cls-3" cx="332.76" cy="329.01" r="1.86"/><circle class="cls-3" cx="305.96" cy="336.47" r="1.86"/><circle class="cls-3" cx="303.35" cy="359.77" r="1.86"/><circle class="cls-3" cx="312.3" cy="355.91" r="1.86"/><circle class="cls-3" cx="290.98" cy="345.82" r="1.86"/><circle class="cls-3" cx="322.24" cy="341.02" r="1.86"/><circle class="cls-3" cx="330.84" cy="336.13" r="1.86"/><circle class="cls-3" cx="323.21" cy="361.58" r="1.86"/><circle class="cls-3" cx="328.46" cy="352.58" r="1.86"/><circle class="cls-3" cx="342.6" cy="333.98" r="1.86"/><circle class="cls-3" cx="264.21" cy="379.01" r="1.86"/><circle class="cls-3" cx="287.82" cy="386.26" r="1.86"/><circle class="cls-3" cx="261.53" cy="390.42" r="1.86"/><circle class="cls-3" cx="258.98" cy="363.69" r="1.86"/><circle class="cls-3" cx="253.34" cy="379.16" r="1.86"/><circle class="cls-3" cx="274.08" cy="356.61" r="1.86"/><circle class="cls-3" cx="280.47" cy="369.54" r="1.86"/><circle class="cls-3" cx="283.69" cy="359.52" r="1.86"/><circle class="cls-3" cx="230.02" cy="406.7" r="1.86"/><circle class="cls-3" cx="244.63" cy="434.3" r="1.86"/><circle class="cls-3" cx="269.22" cy="418.07" r="1.86"/><circle class="cls-3" cx="263.14" cy="413.43" r="1.86"/><circle class="cls-3" cx="252.59" cy="419.81" r="1.86"/><circle class="cls-3" cx="244.03" cy="410.9" r="1.86"/><circle class="cls-3" cx="234.91" cy="415" r="1.86"/><circle class="cls-3" cx="244.04" cy="399.12" r="1.86"/><circle class="cls-3" cx="263.51" cy="401.14" r="1.86"/><circle class="cls-3" cx="252.59" cy="401.73" r="1.86"/><circle class="cls-3" cx="241.29" cy="362.97" r="1.86"/><circle class="cls-3" cx="221" cy="369.3" r="1.86"/><circle class="cls-3" cx="204.13" cy="391.43" r="1.86"/><circle class="cls-3" cx="214.44" cy="405.9" r="1.86"/><circle class="cls-3" cx="222.2" cy="398.76" r="1.86"/><circle class="cls-3" cx="142.22" cy="414.78" r="1.86"/><circle class="cls-3" cx="219.86" cy="385.23" r="1.86"/><circle class="cls-3" cx="210.03" cy="381.63" r="1.86"/><circle class="cls-3" cx="224.69" cy="377.28" r="1.86"/><circle class="cls-3" cx="244.03" cy="375.82" r="1.86"/><circle class="cls-3" cx="246.52" cy="386.82" r="1.86"/><circle class="cls-3" cx="232.82" cy="371.37" r="1.86"/><circle class="cls-3" cx="170.63" cy="372.27" r="1.86"/><circle class="cls-3" cx="176.36" cy="420.03" r="1.86"/><circle class="cls-3" cx="163.39" cy="418.03" r="1.86"/><circle class="cls-3" cx="155.14" cy="402.3" r="1.86"/><circle class="cls-3" cx="151.87" cy="390.41" r="1.86"/><circle class="cls-3" cx="162.35" cy="385.92" r="1.86"/><circle class="cls-3" cx="155.14" cy="369.88" r="1.86"/><circle class="cls-3" cx="174.11" cy="387.82" r="1.86"/><circle class="cls-3" cx="166.87" cy="406" r="1.86"/><circle class="cls-3" cx="181.54" cy="404.32" r="1.86"/><circle class="cls-3" cx="185.24" cy="374.76" r="1.86"/><circle class="cls-3" cx="224.96" cy="426" r="1.86"/><circle class="cls-3" cx="212.49" cy="415.74" r="1.86"/><circle class="cls-3" cx="198.41" cy="432.53" r="1.86"/><circle class="cls-3" cx="198.41" cy="410.39" r="1.86"/><circle class="cls-3" cx="192.05" cy="387.82" r="1.86"/><circle class="cls-3" cx="198.41" cy="371.91" r="1.86"/><circle class="cls-3" cx="205.59" cy="356.26" r="1.86"/><circle class="cls-3" cx="186.91" cy="413.39" r="1.86"/><circle class="cls-3" cx="193.78" cy="345.06" r="1.86"/><circle class="cls-3" cx="195.37" cy="360" r="1.86"/><circle class="cls-3" cx="162.54" cy="355.54" r="1.86"/><circle class="cls-3" cx="397.28" cy="149.56" r="1.86"/><circle class="cls-3" cx="412.9" cy="154.9" r="1.86"/><circle class="cls-3" cx="374.73" cy="129.7" r="1.86"/><circle class="cls-3" cx="396.53" cy="136.71" r="1.86"/><circle class="cls-3" cx="388.01" cy="133.89" r="1.86"/><circle class="cls-3" cx="379.81" cy="136.94" r="1.86"/><circle class="cls-3" cx="367.25" cy="138.35" r="1.86"/><circle class="cls-3" cx="392.84" cy="154.2" r="1.86"/><circle class="cls-3" cx="346.25" cy="77.05" r="1.86"/><circle class="cls-3" cx="372.3" cy="72.51" r="1.86"/><circle class="cls-3" cx="369.84" cy="79.75" r="1.86"/><circle class="cls-3" cx="357.53" cy="80.34" r="1.86"/><circle class="cls-3" cx="356.51" cy="91.69" r="1.86"/><circle class="cls-3" cx="347" cy="87.33" r="1.86"/><circle class="cls-3" cx="361.97" cy="102.28" r="1.86"/><circle class="cls-3" cx="377" cy="89.75" r="1.86"/><circle class="cls-3" cx="379.96" cy="104.22" r="1.86"/><circle class="cls-3" cx="353.01" cy="116.92" r="1.86"/><circle class="cls-3" cx="414.06" cy="138.75" r="1.86"/><circle class="cls-3" cx="400.43" cy="130.09" r="1.86"/><circle class="cls-3" cx="403.22" cy="115.58" r="1.86"/><circle class="cls-3" cx="384.61" cy="124.76" r="1.86"/><circle class="cls-3" cx="378.12" cy="116.14" r="1.86"/><circle class="cls-3" cx="354.4" cy="130.32" r="1.86"/><circle class="cls-3" cx="398.94" cy="102.81" r="1.86"/><circle class="cls-3" cx="336.1" cy="108.81" r="1.86"/><circle class="cls-3" cx="269.4" cy="47.63" r="1.86"/><circle class="cls-3" cx="270.11" cy="17.26" r="1.86"/><circle class="cls-3" cx="282.25" cy="12.53" r="1.86"/><circle class="cls-3" cx="311.59" cy="21.96" r="1.86"/><circle class="cls-3" cx="282.52" cy="23.08" r="1.86"/><circle class="cls-3" cx="287.07" cy="28.54" r="1.86"/><circle class="cls-3" cx="274.76" cy="33.06" r="1.86"/><circle class="cls-3" cx="293.71" cy="42.47" r="1.86"/><circle class="cls-3" cx="303.98" cy="25.81" r="1.86"/><circle class="cls-3" cx="303.38" cy="39.78" r="1.86"/><circle class="cls-3" cx="286.4" cy="62.96" r="1.86"/><circle class="cls-3" cx="333.15" cy="31.22" r="1.86"/><circle class="cls-3" cx="357.02" cy="56.33" r="1.86"/><circle class="cls-3" cx="342.55" cy="69.33" r="1.86"/><circle class="cls-3" cx="329.19" cy="57.25" r="1.86"/><circle class="cls-3" cx="340.28" cy="56.33" r="1.86"/><circle class="cls-3" cx="333.38" cy="50.95" r="1.86"/><circle class="cls-3" cx="340.81" cy="41.63" r="1.86"/><circle class="cls-3" cx="322.34" cy="42.93" r="1.86"/><circle class="cls-3" cx="314.24" cy="58.11" r="1.86"/><circle class="cls-3" cx="314.52" cy="49.23" r="1.86"/><circle class="cls-3" cx="319.26" cy="26.05" r="1.86"/><circle class="cls-3" cx="295.4" cy="71.29" r="1.86"/><circle class="cls-3" cx="304.27" cy="75.35" r="1.86"/><circle class="cls-3" cx="282.73" cy="84.97" r="1.86"/><circle class="cls-3" cx="313.88" cy="90.44" r="1.86"/><circle class="cls-3" cx="320.35" cy="105.44" r="1.86"/><circle class="cls-3" cx="315.3" cy="69.91" r="1.86"/><circle class="cls-3" cx="320.35" cy="79.02" r="1.86"/><circle class="cls-3" cx="334.08" cy="97.93" r="1.86"/><circle class="cls-3" cx="256.68" cy="51.2" r="1.86"/><circle class="cls-3" cx="280.45" cy="44.47" r="1.86"/><circle class="cls-3" cx="254.26" cy="39.74" r="1.86"/><circle class="cls-3" cx="251.13" cy="66.41" r="1.86"/><circle class="cls-3" cx="245.83" cy="50.82" r="1.86"/><circle class="cls-3" cx="266.07" cy="73.81" r="1.86"/><circle class="cls-3" cx="272.74" cy="61.03" r="1.86"/><circle class="cls-3" cx="223.11" cy="22.78" r="1.86"/><circle class="cls-3" cx="241.93" cy="2.29" r="1.86"/><circle class="cls-3" cx="262.55" cy="12.26" r="1.86"/><circle class="cls-3" cx="256.37" cy="16.77" r="1.86"/><circle class="cls-3" cx="245.96" cy="10.17" r="1.86"/><circle class="cls-3" cx="245.97" cy="18.82" r="1.86"/><circle class="cls-3" cx="228.17" cy="14.59" r="1.86"/><circle class="cls-3" cx="236.96" cy="30.67" r="1.86"/><circle class="cls-3" cx="256.47" cy="29.07" r="1.86"/><circle class="cls-3" cx="244.86" cy="36.86" r="1.86"/><circle class="cls-3" cx="237.54" cy="65.5" r="1.86"/><circle class="cls-3" cx="213.28" cy="59.97" r="1.86"/><circle class="cls-3" cx="196.89" cy="37.48" r="1.86"/><circle class="cls-3" cx="210.74" cy="19.24" r="1.86"/><circle class="cls-3" cx="215.12" cy="30.54" r="1.86"/><circle class="cls-3" cx="133.38" cy="18.82" r="1.86"/><circle class="cls-3" cx="212.48" cy="44.02" r="1.86"/><circle class="cls-3" cx="202.58" cy="47.41" r="1.86"/><circle class="cls-3" cx="217.14" cy="52.08" r="1.86"/><circle class="cls-3" cx="236.44" cy="53.96" r="1.86"/><circle class="cls-3" cx="239.17" cy="43.01" r="1.86"/><circle class="cls-3" cx="225.14" cy="58.16" r="1.86"/><circle class="cls-3" cx="162.99" cy="55.91" r="1.86"/><circle class="cls-3" cx="138.14" cy="43.38" r="1.86"/><circle class="cls-3" cx="156.74" cy="10" r="1.86"/><circle class="cls-3" cx="148.15" cy="25.55" r="1.86"/><circle class="cls-3" cx="144.63" cy="37.36" r="1.86"/><circle class="cls-3" cx="155" cy="42.08" r="1.86"/><circle class="cls-3" cx="148.53" cy="60.19" r="1.86"/><circle class="cls-3" cx="166.8" cy="40.44" r="1.86"/><circle class="cls-3" cx="159.96" cy="22.11" r="1.86"/><circle class="cls-3" cx="174.59" cy="24.11" r="1.86"/><circle class="cls-3" cx="177.64" cy="53.74" r="1.86"/><circle class="cls-3" cx="218.47" cy="3.38" r="1.86"/><circle class="cls-3" cx="205.78" cy="13.36" r="1.86"/><circle class="cls-3" cx="193.01" cy="5.93" r="1.86"/><circle class="cls-3" cx="195.51" cy="26.53" r="1.86"/><circle class="cls-3" cx="190.39" cy="33.49" r="1.86"/><circle class="cls-3" cx="190.75" cy="56.87" r="1.86"/><circle class="cls-3" cx="197.58" cy="72.68" r="1.86"/><circle class="cls-3" cx="179.55" cy="5.74" r="1.86"/><circle class="cls-3" cx="185.54" cy="83.62" r="1.86"/><circle class="cls-3" cx="187.46" cy="68.72" r="1.86"/><circle class="cls-3" cx="417.85" cy="124.76" r="1.86"/></g><g id="text"><text class="cls-4" transform="translate(87.01 248.94) scale(.9 1)"><tspan x="0" y="0">DOT</tspan></text><text class="cls-1" transform="translate(132.26 285.82)"><tspan x="0" y="0">DASHBOARD OF TOMORROW</tspan></text></g></svg>