<?xml version="1.0" encoding="utf-8"?>
<!-- Generator: Adobe Illustrator 27.5.0, SVG Export Plug-In . SVG Version: 6.00 Build 0)  -->
<svg version="1.1" id="Lag_1" xmlns="http://www.w3.org/2000/svg" xmlns:xlink="http://www.w3.org/1999/xlink" x="0px" y="0px"
	 viewBox="0 0 490 470" style="enable-background:new 0 0 490 470;" xml:space="preserve">
<style type="text/css">
	.st0{fill:#FAFAFA;}
	.st1{fill:#F8F7F7;}
	.st2{fill:#FFFFFF;}
	.st3{font-family:'Roboto-Thin';}
	.st4{font-size:104px;}
	.st5{fill:#31B6CC;}
	.st6{font-size:14px;}
</style>
<g id="bigDots1">
	<circle class="st0" cx="102.4" cy="78.6" r="7.4"/>
	<circle class="st0" cx="83.9" cy="114.5" r="7.4"/>
	<circle class="st0" cx="141.1" cy="67.6" r="7.4"/>
	<circle class="st0" cx="174" cy="43.3" r="7.4"/>
	<circle class="st0" cx="224.7" cy="35.9" r="7.4"/>
	<circle class="st0" cx="275.9" cy="31.9" r="7.4"/>
	<circle class="st0" cx="306.2" cy="49.1" r="7.4"/>
	<circle class="st0" cx="345.5" cy="62.1" r="7.4"/>
	<circle class="st0" cx="356.4" cy="90.8" r="7.4"/>
	<circle class="st0" cx="392.1" cy="107.1" r="7.4"/>
	<circle class="st0" cx="414.3" cy="136.8" r="7.4"/>
	<circle class="st0" cx="443" cy="268.5" r="7.4"/>
	<ellipse class="st0" cx="433.4" cy="229.3" rx="7.4" ry="7.4"/>
	<circle class="st0" cx="421" cy="302.2" r="7.4"/>
	<circle class="st0" cx="412.1" cy="342.2" r="7.4"/>
	<circle class="st0" cx="378.7" cy="381" r="7.4"/>
	<circle class="st0" cx="342.8" cy="417.6" r="7.4"/>
	<circle class="st0" cx="308.5" cy="424.5" r="7.4"/>
	<circle class="st0" cx="270.4" cy="440.4" r="7.4"/>
	<circle class="st0" cx="243.4" cy="425.9" r="7.4"/>
	
		<ellipse transform="matrix(0.7547 -0.6561 0.6561 0.7547 -236.3186 242.2027)" class="st0" cx="205.7" cy="437.1" rx="7.4" ry="7.4"/>
	<circle class="st0" cx="171.5" cy="433" r="7.4"/>
	<circle class="st0" cx="142" cy="405.5" r="7.4"/>
	<circle class="st0" cx="104.2" cy="389.9" r="7.4"/>
	<circle class="st0" cx="71.7" cy="350.3" r="7.4"/>
	<circle class="st0" cx="41.9" cy="308.6" r="7.4"/>
	<circle class="st0" cx="41" cy="273.7" r="7.4"/>
	<circle class="st0" cx="31.8" cy="233.3" r="7.4"/>
	<circle class="st0" cx="50.8" cy="209.2" r="7.4"/>
	<ellipse class="st0" cx="46.3" cy="170.2" rx="7.4" ry="7.4"/>
	<ellipse class="st0" cx="60.3" cy="135.9" rx="7.4" ry="7.4"/>
	<ellipse class="st0" cx="421.7" cy="166.9" rx="7.4" ry="7.4"/>
	<ellipse class="st0" cx="439.9" cy="199.2" rx="7.4" ry="7.4"/>
</g>
<g id="bigDots2">
	<circle class="st1" cx="80.1" cy="96.9" r="7.4"/>
	<ellipse class="st1" cx="125.9" cy="91.5" rx="7.4" ry="7.4"/>
	<circle class="st1" cx="108.5" cy="122" r="7.4"/>
	<circle class="st1" cx="74.5" cy="163.4" r="7.4"/>
	<circle class="st1" cx="28.8" cy="194.6" r="7.4"/>
	<circle class="st1" cx="52.9" cy="253.6" r="7.4"/>
	<circle class="st1" cx="67.1" cy="294.8" r="7.4"/>
	<circle class="st1" cx="62.9" cy="326.5" r="7.4"/>
	<circle class="st1" cx="98.5" cy="352.6" r="7.4"/>
	<ellipse class="st1" cx="131.3" cy="379.1" rx="7.4" ry="7.4"/>
	
		<ellipse transform="matrix(0.9988 -4.993691e-02 4.993691e-02 0.9988 -21.3155 7.9033)" class="st1" cx="147.5" cy="430.5" rx="7.4" ry="7.4"/>
	<circle class="st1" cx="275.5" cy="413" r="7.4"/>
	
		<ellipse transform="matrix(0.6176 -0.7865 0.7865 0.6176 -241.9694 333.5404)" class="st1" cx="222" cy="415.6" rx="7.4" ry="7.4"/>
	<circle class="st1" cx="318.3" cy="401.9" r="7.4"/>
	<circle class="st1" cx="354.6" cy="394.6" r="7.4"/>
	<circle class="st1" cx="404.1" cy="370.8" r="7.4"/>
	<circle class="st1" cx="383.7" cy="342.2" r="7.4"/>
	<circle class="st1" cx="436.5" cy="317.2" r="7.4"/>
	<circle class="st1" cx="410.1" cy="280.9" r="7.4"/>
	<circle class="st1" cx="421.6" cy="247.2" r="7.4"/>
	<ellipse class="st1" cx="447.4" cy="217.9" rx="7.4" ry="7.4"/>
	<circle class="st1" cx="421" cy="190.7" r="7.4"/>
	<circle class="st1" cx="392.1" cy="133.9" r="7.4"/>
	<circle class="st1" cx="387.2" cy="86.6" r="7.4"/>
	<circle class="st1" cx="326.2" cy="80.3" r="7.4"/>
	<circle class="st1" cx="289.3" cy="63.8" r="7.4"/>
	<circle class="st1" cx="251.4" cy="52.3" r="7.4"/>
	<circle class="st1" cx="244" cy="26" r="7.4"/>
	<circle class="st1" cx="203" cy="52.9" r="7.4"/>
	<ellipse class="st1" cx="170.8" cy="65.9" rx="7.4" ry="7.4"/>
	<ellipse class="st1" cx="125.3" cy="58.9" rx="7.4" ry="7.4"/>
	
		<ellipse transform="matrix(0.6176 -0.7865 0.7865 0.6176 -252.6566 292.2068)" class="st1" cx="174.2" cy="405.9" rx="7.4" ry="7.4"/>
	
		<ellipse transform="matrix(0.6176 -0.7865 0.7865 0.6176 -268.5157 352.8464)" class="st1" cx="228.6" cy="452.6" rx="7.4" ry="7.4"/>
	<circle class="st1" cx="83.9" cy="375.9" r="7.4"/>
</g>
<g id="dots1">
	<ellipse transform="matrix(0.7547 -0.6561 0.6561 0.7547 -145.987 83.9721)" class="st1" cx="39.3" cy="237.2" rx="3.7" ry="3.7"/>
	<ellipse transform="matrix(0.7547 -0.6561 0.6561 0.7547 -132.2277 70.59)" class="st1" cx="28.3" cy="212.1" rx="3.7" ry="3.7"/>
	
		<ellipse transform="matrix(0.7547 -0.6561 0.6561 0.7547 -135.4555 88.7281)" class="st1" cx="50.9" cy="225.5" rx="3.7" ry="3.7"/>
	<ellipse transform="matrix(0.7547 -0.6561 0.6561 0.7547 -122.9488 65.4252)" class="st1" cx="26" cy="197.1" rx="3.7" ry="3.7"/>
	<ellipse transform="matrix(0.7547 -0.6561 0.6561 0.7547 -93.1843 92.0289)" class="st1" cx="76.5" cy="170.6" rx="3.7" ry="3.7"/>
	<ellipse transform="matrix(0.7547 -0.6561 0.6561 0.7547 -113.6718 86.0383)" class="st1" cx="58.2" cy="195" rx="3.7" ry="3.7"/>
	<ellipse transform="matrix(0.7547 -0.6561 0.6561 0.7547 -113.0833 70.783)" class="st1" cx="38.1" cy="186.6" rx="3.7" ry="3.7"/>
	
		<ellipse transform="matrix(0.7547 -0.6561 0.6561 0.7547 -124.3835 91.5906)" class="st1" cx="60.3" cy="212.1" rx="3.7" ry="3.7"/>
	<ellipse transform="matrix(0.7547 -0.6561 0.6561 0.7547 -94.9177 66.1422)" class="st1" cx="41" cy="160" rx="3.7" ry="3.7"/>
	<ellipse transform="matrix(0.7547 -0.6561 0.6561 0.7547 -88.7314 79.5436)" class="st1" cx="62" cy="158.4" rx="3.7" ry="3.7"/>
	<ellipse class="st1" cx="51.5" cy="136.9" rx="3.7" ry="3.7"/>
	<ellipse transform="matrix(0.7547 -0.6561 0.6561 0.7547 8.0303 206.6739)" class="st1" cx="280.4" cy="92.6" rx="3.7" ry="3.7"/>
	<ellipse class="st1" cx="98.7" cy="118.3" rx="3.7" ry="3.7"/>
	<ellipse class="st1" cx="63.5" cy="118.3" rx="3.7" ry="3.7"/>
	<ellipse class="st1" cx="108.5" cy="105.2" rx="3.7" ry="3.7"/>
	<ellipse class="st1" cx="85.7" cy="91.9" rx="3.7" ry="3.7"/>
	<ellipse class="st1" cx="131.3" cy="118.9" rx="3.7" ry="3.7"/>
	<ellipse class="st1" cx="119.2" cy="80.3" rx="3.7" ry="3.7"/>
	<ellipse class="st1" cx="105.3" cy="69.9" rx="3.7" ry="3.7"/>
	<ellipse class="st1" cx="144.8" cy="82.4" rx="3.7" ry="3.7"/>
	<ellipse class="st1" cx="131.3" cy="52.3" rx="3.7" ry="3.7"/>
	<ellipse class="st1" cx="159.6" cy="41.2" rx="3.7" ry="3.7"/>
	<ellipse class="st1" cx="156.5" cy="68" rx="3.7" ry="3.7"/>
	<ellipse class="st1" cx="179.3" cy="63.8" rx="3.7" ry="3.7"/>
	<ellipse transform="matrix(0.6529 -0.7575 0.7575 0.6529 43.3941 167.4967)" class="st1" cx="204.4" cy="36.4" rx="3.7" ry="3.7"/>
	<ellipse transform="matrix(0.6529 -0.7575 0.7575 0.6529 53.9499 178.2211)" class="st1" cx="221.4" cy="30.2" rx="3.7" ry="3.7"/>
	<ellipse transform="matrix(0.6529 -0.7575 0.7575 0.6529 39.7936 196.2558)" class="st1" cx="234" cy="54.7" rx="3.7" ry="3.7"/>
	<ellipse transform="matrix(0.6529 -0.7575 0.7575 0.6529 63.1912 194.6687)" class="st1" cx="244" cy="28.4" rx="3.7" ry="3.7"/>
	<ellipse transform="matrix(0.6529 -0.7575 0.7575 0.6529 56.182 227.1604)" class="st1" cx="275.9" cy="52.3" rx="3.7" ry="3.7"/>
	<ellipse transform="matrix(0.6529 -0.7575 0.7575 0.6529 46.402 212.4737)" class="st1" cx="255" cy="55.6" rx="3.7" ry="3.7"/>
	<ellipse transform="matrix(0.6529 -0.7575 0.7575 0.6529 60.354 218.3766)" class="st1" cx="268.4" cy="43.3" rx="3.7" ry="3.7"/>
	<ellipse transform="matrix(0.6529 -0.7575 0.7575 0.6529 18.9687 202.0442)" class="st1" cx="229.9" cy="80.3" rx="3.7" ry="3.7"/>
	<ellipse transform="matrix(0.6529 -0.7575 0.7575 0.6529 78.4967 236.7152)" class="st1" cx="297.5" cy="32.7" rx="3.7" ry="3.7"/>
	<ellipse transform="matrix(0.6529 -0.7575 0.7575 0.6529 60.2507 239.7704)" class="st1" cx="291.7" cy="54.1" rx="3.7" ry="3.7"/>
	<ellipse transform="matrix(0.6529 -0.7575 0.7575 0.6529 68.2827 257.2536)" class="st1" cx="314.8" cy="54.1" rx="3.7" ry="3.7"/>
	<ellipse transform="matrix(0.6529 -0.7575 0.7575 0.6529 61.5714 263.9759)" class="st1" cx="318.8" cy="64.8" rx="3.7" ry="3.7"/>
	
		<ellipse transform="matrix(0.6529 -0.7575 0.7575 0.6529 38.0244 289.9319)" class="st1" cx="335.3" cy="103.5" rx="3.7" ry="3.7"/>
	<ellipse transform="matrix(0.6529 -0.7575 0.7575 0.6529 77.3967 268.5365)" class="st1" cx="331.7" cy="49.8" rx="3.7" ry="3.7"/>
	<ellipse transform="matrix(0.6529 -0.7575 0.7575 0.6529 68.9706 285.0951)" class="st1" cx="345.5" cy="67.3" rx="3.7" ry="3.7"/>
	<ellipse transform="matrix(0.6529 -0.7575 0.7575 0.6529 73.7558 296.9963)" class="st1" cx="360.9" cy="68" rx="3.7" ry="3.7"/>
	<ellipse transform="matrix(0.6529 -0.7575 0.7575 0.6529 57.6053 311.0014)" class="st1" cx="368.1" cy="92.7" rx="3.7" ry="3.7"/>
	<ellipse transform="matrix(0.6529 -0.7575 0.7575 0.6529 55.4952 320.3599)" class="st1" cx="377.3" cy="99.6" rx="3.7" ry="3.7"/>
	<ellipse transform="matrix(0.6529 -0.7575 0.7575 0.6529 69.9714 321.2897)" class="st1" cx="385.5" cy="84.3" rx="3.7" ry="3.7"/>
	
		<ellipse transform="matrix(0.6529 -0.7575 0.7575 0.6529 30.0575 329.2541)" class="st1" cx="374.3" cy="131.8" rx="3.7" ry="3.7"/>
	<ellipse transform="matrix(0.6529 -0.7575 0.7575 0.6529 58.593 338.3016)" class="st1" cx="398.4" cy="105.2" rx="3.7" ry="3.7"/>
	
		<ellipse transform="matrix(0.6529 -0.7575 0.7575 0.6529 35.9899 367.1385)" class="st1" cx="418.6" cy="144.3" rx="3.7" ry="3.7"/>
	
		<ellipse transform="matrix(0.6529 -0.7575 0.7575 0.6529 46.6754 344.5378)" class="st1" cx="399.2" cy="121.3" rx="3.7" ry="3.7"/>
	<ellipse class="st1" cx="401.8" cy="151.4" rx="3.7" ry="3.7"/>
	<ellipse class="st1" cx="215.1" cy="420.1" rx="3.7" ry="3.7"/>
	
		<ellipse transform="matrix(0.8399 -0.5427 0.5427 0.8399 -211.1984 173.9639)" class="st1" cx="189.3" cy="445" rx="3.7" ry="3.7"/>
	<ellipse class="st1" cx="235.9" cy="433" rx="3.7" ry="3.7"/>
	
		<ellipse transform="matrix(0.5376 -0.8432 0.8432 0.5376 -276.0201 343.7268)" class="st1" cx="175.4" cy="423.5" rx="3.7" ry="3.7"/>
	
		<ellipse transform="matrix(0.8399 -0.5427 0.5427 0.8399 -177.0011 146.8847)" class="st1" cx="160.5" cy="373.5" rx="3.7" ry="3.7"/>
	
		<ellipse transform="matrix(0.8399 -0.5427 0.5427 0.8399 -192.6653 161.1305)" class="st1" cx="176.8" cy="407.2" rx="3.7" ry="3.7"/>
	
		<ellipse transform="matrix(0.8399 -0.5427 0.5427 0.8399 -212.4158 153.9869)" class="st1" cx="154.8" cy="437.1" rx="3.7" ry="3.7"/>
	
		<ellipse transform="matrix(0.2708 -0.9626 0.9626 0.2708 -257.6803 487.6422)" class="st1" cx="193" cy="413.9" rx="3.7" ry="3.7"/>
	
		<ellipse transform="matrix(0.8399 -0.5427 0.5427 0.8399 -205.204 141.2996)" class="st1" cx="136.9" cy="418.5" rx="3.7" ry="3.7"/>
	
		<ellipse transform="matrix(0.8399 -0.5427 0.5427 0.8399 -191.4827 127.389)" class="st1" cx="120.2" cy="388.3" rx="3.7" ry="3.7"/>
	
		<ellipse transform="matrix(0.8399 -0.5427 0.5427 0.8399 -206.5493 130.8997)" class="st1" cx="118.6" cy="415.6" rx="3.7" ry="3.7"/>
	
		<ellipse transform="matrix(0.8399 -0.5427 0.5427 0.8399 -186.3291 115.2429)" class="st1" cx="102.2" cy="373.5" rx="3.7" ry="3.7"/>
	
		<ellipse transform="matrix(0.8399 -0.5427 0.5427 0.8399 -201.4774 117.5481)" class="st1" cx="98.5" cy="400.3" rx="3.7" ry="3.7"/>
	
		<ellipse transform="matrix(0.8399 -0.5427 0.5427 0.8399 -187.6867 105.2193)" class="st1" cx="84.5" cy="370.8" rx="3.7" ry="3.7"/>
	
		<ellipse transform="matrix(0.7824 -0.6228 0.6228 0.7824 -212.5423 123.1212)" class="st1" cx="69.9" cy="365.7" rx="3.7" ry="3.7"/>
	
		<ellipse transform="matrix(0.8399 -0.5427 0.5427 0.8399 -172.9665 96.1595)" class="st1" cx="76.5" cy="341.3" rx="3.7" ry="3.7"/>
	
		<ellipse transform="matrix(0.8399 -0.5427 0.5427 0.8399 -169.4651 87.2301)" class="st1" cx="63.1" cy="330.9" rx="3.7" ry="3.7"/>
	
		<ellipse transform="matrix(0.8399 -0.5427 0.5427 0.8399 -178.0926 82.5712)" class="st1" cx="50.9" cy="343.2" rx="3.7" ry="3.7"/>
	
		<ellipse transform="matrix(0.8399 -0.5427 0.5427 0.8399 -157.5552 80.8288)" class="st1" cx="58.2" cy="307.5" rx="3.7" ry="3.7"/>
	
		<ellipse transform="matrix(0.8399 -0.5427 0.5427 0.8399 -162.3227 91.4694)" class="st1" cx="73.9" cy="320.9" rx="3.7" ry="3.7"/>
	
		<ellipse transform="matrix(0.8399 -0.5427 0.5427 0.8399 -147.0274 60.7224)" class="st1" cx="29.4" cy="279.6" rx="3.7" ry="3.7"/>
	
		<ellipse transform="matrix(0.8399 -0.5427 0.5427 0.8399 -151.3134 74.5417)" class="st1" cx="50.7" cy="293.8" rx="3.7" ry="3.7"/>
	<ellipse transform="matrix(0.8399 -0.5427 0.5427 0.8399 -139.6407 77.7733)" class="st1" cx="62" cy="275.6" rx="3.7" ry="3.7"/>
	<ellipse class="st1" cx="444.8" cy="220.5" rx="3.7" ry="3.7"/>
	<ellipse class="st1" cx="468.5" cy="236.5" rx="3.7" ry="3.7"/>
	<ellipse class="st1" cx="441.6" cy="236" rx="3.7" ry="3.7"/>
	<ellipse class="st1" cx="464.3" cy="255.6" rx="3.7" ry="3.7"/>
	<ellipse class="st1" cx="432.9" cy="281.3" rx="3.7" ry="3.7"/>
	<ellipse class="st1" cx="378.7" cy="297.3" rx="3.7" ry="3.7"/>
	<ellipse class="st1" cx="466" cy="267.8" rx="3.7" ry="3.7"/>
	<ellipse class="st1" cx="395.6" cy="250.5" rx="3.7" ry="3.7"/>
	<ellipse class="st1" cx="444.7" cy="296.2" rx="3.7" ry="3.7"/>
	<ellipse class="st1" cx="412.1" cy="287.3" rx="3.7" ry="3.7"/>
	<ellipse class="st1" cx="441.4" cy="309" rx="3.7" ry="3.7"/>
	<ellipse class="st1" cx="394.9" cy="314" rx="3.7" ry="3.7"/>
	<ellipse class="st1" cx="395.6" cy="334.7" rx="3.7" ry="3.7"/>
	<ellipse class="st1" cx="427.4" cy="340.7" rx="3.7" ry="3.7"/>
	<ellipse class="st1" cx="408.8" cy="352.9" rx="3.7" ry="3.7"/>
	<ellipse class="st1" cx="406.7" cy="368.2" rx="3.7" ry="3.7"/>
	<ellipse class="st1" cx="383.7" cy="356.6" rx="3.7" ry="3.7"/>
	<ellipse class="st1" cx="368.3" cy="385.8" rx="3.7" ry="3.7"/>
	<ellipse class="st1" cx="389.7" cy="390" rx="3.7" ry="3.7"/>
	<ellipse class="st1" cx="345.3" cy="369.7" rx="3.7" ry="3.7"/>
	<ellipse class="st1" cx="354.6" cy="384" rx="3.7" ry="3.7"/>
	<ellipse class="st1" cx="316.4" cy="397.9" rx="3.7" ry="3.7"/>
	<ellipse class="st1" cx="345.3" cy="401.4" rx="3.7" ry="3.7"/>
	<ellipse class="st1" cx="272" cy="407.2" rx="3.7" ry="3.7"/>
	<ellipse class="st1" cx="431.2" cy="165.9" rx="3.7" ry="3.7"/>
	<ellipse class="st1" cx="441.4" cy="174.7" rx="3.7" ry="3.7"/>
	<ellipse class="st1" cx="432.9" cy="201.1" rx="3.7" ry="3.7"/>
	<ellipse class="st1" cx="411.9" cy="229.3" rx="3.7" ry="3.7"/>
	<ellipse class="st1" cx="219.9" cy="440.4" rx="3.7" ry="3.7"/>
	<ellipse class="st1" cx="247.9" cy="407.2" rx="3.7" ry="3.7"/>
	<ellipse class="st1" cx="246.6" cy="440.9" rx="3.7" ry="3.7"/>
	<ellipse transform="matrix(0.916 -0.4012 0.4012 0.916 -10.3803 85.6697)" class="st1" cx="199.4" cy="67.6" rx="3.7" ry="3.7"/>
	<ellipse class="st1" cx="275.5" cy="447.9" rx="3.7" ry="3.7"/>
	<ellipse class="st1" cx="287.6" cy="423.5" rx="3.7" ry="3.7"/>
	<ellipse class="st1" cx="297.5" cy="391.3" rx="3.7" ry="3.7"/>
	<ellipse class="st1" cx="298.5" cy="433" rx="3.7" ry="3.7"/>
	<ellipse transform="matrix(0.7547 -0.6561 0.6561 0.7547 -150.986 113.643)" class="st1" cx="76.5" cy="258.7" rx="3.7" ry="3.7"/>
	
		<ellipse transform="matrix(0.7547 -0.6561 0.6561 0.7547 -156.1017 89.7062)" class="st1" cx="41.9" cy="253.6" rx="3.7" ry="3.7"/>
	<ellipse transform="matrix(0.7547 -0.6561 0.6561 0.7547 -157.1467 80.754)" class="st1" cx="29.4" cy="250.5" rx="3.7" ry="3.7"/>
	<ellipse class="st1" cx="263.6" cy="385.8" rx="3.7" ry="3.7"/>
	<ellipse class="st1" cx="317.2" cy="369.7" rx="3.7" ry="3.7"/>
</g>
<g id="dots2">
	<ellipse class="st0" cx="441.4" cy="235.8" rx="3.7" ry="3.7"/>
	<ellipse class="st0" cx="466" cy="219.4" rx="3.7" ry="3.7"/>
	<ellipse class="st0" cx="429.9" cy="216.3" rx="3.7" ry="3.7"/>
	<ellipse class="st0" cx="447.1" cy="204.3" rx="3.7" ry="3.7"/>
	<ellipse class="st0" cx="424" cy="184.2" rx="3.7" ry="3.7"/>
	<ellipse class="st0" cx="418.6" cy="197.7" rx="3.7" ry="3.7"/>
	<ellipse class="st0" cx="447.1" cy="189.1" rx="3.7" ry="3.7"/>
	<ellipse class="st0" cx="420.3" cy="210.7" rx="3.7" ry="3.7"/>
	<ellipse class="st0" cx="436.9" cy="151.4" rx="3.7" ry="3.7"/>
	<ellipse class="st0" cx="418.6" cy="157" rx="3.7" ry="3.7"/>
	
		<ellipse transform="matrix(0.6561 -0.7547 0.7547 0.6561 43.4212 372.0142)" class="st0" cx="429.9" cy="138.4" rx="3.7" ry="3.7"/>
	
		<ellipse transform="matrix(0.6561 -0.7547 0.7547 0.6561 39.5099 350.3355)" class="st0" cx="404.1" cy="131.8" rx="3.7" ry="3.7"/>
	
		<ellipse transform="matrix(0.6561 -0.7547 0.7547 0.6561 43.1617 328.3809)" class="st0" cx="381.9" cy="116.8" rx="3.7" ry="3.7"/>
	<ellipse transform="matrix(0.6561 -0.7547 0.7547 0.6561 55.273 354.9397)" class="st0" cx="417.1" cy="116.8" rx="3.7" ry="3.7"/>
	
		<ellipse transform="matrix(0.6561 -0.7547 0.7547 0.6561 61.4478 347.6306)" class="st0" cx="412.1" cy="106.4" rx="3.7" ry="3.7"/>
	<ellipse transform="matrix(0.6561 -0.7547 0.7547 0.6561 67.4775 329.1617)" class="st0" cx="394.9" cy="90.5" rx="3.7" ry="3.7"/>
	
		<ellipse transform="matrix(0.6561 -0.7547 0.7547 0.6561 44.1908 309.7361)" class="st0" cx="361.9" cy="106.4" rx="3.7" ry="3.7"/>
	<ellipse transform="matrix(0.6561 -0.7547 0.7547 0.6561 64.7571 299.8837)" class="st0" cx="361.4" cy="78.9" rx="3.7" ry="3.7"/>
	<ellipse transform="matrix(0.6561 -0.7547 0.7547 0.6561 77.3487 306.785)" class="st0" cx="375.3" cy="68.5" rx="3.7" ry="3.7"/>
	<ellipse transform="matrix(0.6561 -0.7547 0.7547 0.6561 54.4072 281.2312)" class="st0" cx="335.8" cy="80.9" rx="3.7" ry="3.7"/>
	<ellipse transform="matrix(0.6561 -0.7547 0.7547 0.6561 76.9224 286.4387)" class="st0" cx="352.7" cy="58.8" rx="3.7" ry="3.7"/>
	<ellipse transform="matrix(0.6561 -0.7547 0.7547 0.6561 79.5753 251.2178)" class="st0" cx="315.4" cy="38.3" rx="3.7" ry="3.7"/>
	<ellipse transform="matrix(0.6561 -0.7547 0.7547 0.6561 68.0539 271.3401)" class="st0" cx="331.7" cy="61" rx="3.7" ry="3.7"/>
	<ellipse transform="matrix(0.6561 -0.7547 0.7547 0.6561 49.5002 256.4947)" class="st0" cx="306.2" cy="73.9" rx="3.7" ry="3.7"/>
	<ellipse transform="matrix(0.7575 -0.6529 0.6529 0.7575 42.3888 197.5053)" class="st0" cx="287" cy="41.7" rx="3.7" ry="3.7"/>
	<ellipse transform="matrix(0.7575 -0.6529 0.6529 0.7575 45.9709 175.7174)" class="st0" cx="259.5" cy="26" rx="3.7" ry="3.7"/>
	<ellipse class="st0" cx="423.3" cy="271.4" rx="3.7" ry="3.7"/>
	<ellipse transform="matrix(0.7575 -0.6529 0.6529 0.7575 41.8424 165.9873)" class="st0" cx="244.3" cy="26.7" rx="3.7" ry="3.7"/>
	<ellipse transform="matrix(0.7575 -0.6529 0.6529 0.7575 18.7604 151.9515)" class="st0" cx="213.9" cy="50.7" rx="3.7" ry="3.7"/>
	<ellipse class="st0" cx="175.4" cy="89.8" rx="3.7" ry="3.7"/>
	<ellipse transform="matrix(0.7575 -0.6529 0.6529 0.7575 30.9002 166.5515)" class="st0" cx="239.6" cy="41.7" rx="3.7" ry="3.7"/>
	<ellipse transform="matrix(0.7575 -0.6529 0.6529 0.7575 16.1048 180.3403)" class="st0" cx="250.8" cy="68.5" rx="3.7" ry="3.7"/>
	<ellipse class="st0" cx="191.6" cy="30.2" rx="3.7" ry="3.7"/>
	<ellipse class="st0" cx="188.9" cy="52.7" rx="3.7" ry="3.7"/>
	<ellipse class="st0" cx="172.9" cy="30.2" rx="3.7" ry="3.7"/>
	<ellipse class="st0" cx="166.6" cy="56.4" rx="3.7" ry="3.7"/>
	<ellipse class="st0" cx="137.4" cy="99.6" rx="3.7" ry="3.7"/>
	<ellipse class="st0" cx="148.5" cy="51.2" rx="3.7" ry="3.7"/>
	<ellipse class="st0" cx="135.1" cy="65.9" rx="3.7" ry="3.7"/>
	<ellipse class="st0" cx="119.7" cy="66.6" rx="3.7" ry="3.7"/>
	<ellipse class="st0" cx="125.2" cy="90.8" rx="3.7" ry="3.7"/>
	<ellipse class="st0" cx="164.1" cy="122" rx="3.7" ry="3.7"/>
	<ellipse class="st0" cx="103.8" cy="89.8" rx="3.7" ry="3.7"/>
	<ellipse class="st0" cx="105.5" cy="135.9" rx="3.7" ry="3.7"/>
	<ellipse class="st0" cx="72" cy="103.8" rx="3.7" ry="3.7"/>
	<ellipse class="st0" cx="71.7" cy="135.9" rx="3.7" ry="3.7"/>
	<ellipse class="st0" cx="81.4" cy="124.9" rx="3.7" ry="3.7"/>
	<ellipse transform="matrix(0.7575 -0.6529 0.6529 0.7575 -78.7764 87.9018)" class="st0" cx="78.9" cy="150" rx="3.7" ry="3.7"/>
	<ellipse class="st0" cx="273.5" cy="430.9" rx="3.7" ry="3.7"/>
	<ellipse class="st0" cx="291.3" cy="443.7" rx="3.7" ry="3.7"/>
	<ellipse class="st0" cx="259.7" cy="423.6" rx="3.7" ry="3.7"/>
	<ellipse class="st0" cx="312.7" cy="437.1" rx="3.7" ry="3.7"/>
	<ellipse class="st0" cx="330.8" cy="407.2" rx="3.7" ry="3.7"/>
	<ellipse class="st0" cx="312.7" cy="413" rx="3.7" ry="3.7"/>
	<ellipse class="st0" cx="329.2" cy="430.5" rx="3.7" ry="3.7"/>
	<ellipse class="st0" cx="294.6" cy="408.6" rx="3.7" ry="3.7"/>
	<ellipse class="st0" cx="356.1" cy="417.6" rx="3.7" ry="3.7"/>
	<ellipse class="st0" cx="335.3" cy="390.1" rx="3.7" ry="3.7"/>
	<ellipse class="st0" cx="357.4" cy="401.5" rx="3.7" ry="3.7"/>
	<ellipse class="st0" cx="368.3" cy="366.1" rx="3.7" ry="3.7"/>
	<ellipse class="st0" cx="374.1" cy="334.7" rx="3.7" ry="3.7"/>
	<ellipse class="st0" cx="372.8" cy="401.4" rx="3.7" ry="3.7"/>
	<ellipse class="st0" cx="393.7" cy="371.5" rx="3.7" ry="3.7"/>
	<ellipse class="st0" cx="420.1" cy="356.7" rx="3.7" ry="3.7"/>
	<ellipse class="st0" cx="397.9" cy="352.9" rx="3.7" ry="3.7"/>
	<ellipse class="st0" cx="417.5" cy="329.5" rx="3.7" ry="3.7"/>
	<ellipse class="st0" cx="432.7" cy="329.5" rx="3.7" ry="3.7"/>
	<ellipse class="st0" cx="411.9" cy="304.4" rx="3.7" ry="3.7"/>
	<ellipse class="st0" cx="426.1" cy="317.1" rx="3.7" ry="3.7"/>
	<ellipse class="st0" cx="463.2" cy="282.3" rx="3.7" ry="3.7"/>
	<ellipse class="st0" cx="431.1" cy="297.5" rx="3.7" ry="3.7"/>
	<ellipse class="st0" cx="401.8" cy="275.1" rx="3.7" ry="3.7"/>
	<ellipse transform="matrix(0.6982 -0.7159 0.7159 0.6982 -146.032 91.8037)" class="st0" cx="35.9" cy="219.1" rx="3.7" ry="3.7"/>
	
		<ellipse transform="matrix(0.6982 -0.7159 0.7159 0.6982 -158.1527 87.0508)" class="st0" cx="24.2" cy="231.1" rx="3.7" ry="3.7"/>
	
		<ellipse transform="matrix(0.6982 -0.7159 0.7159 0.6982 -150.9797 114.4886)" class="st0" cx="60.3" cy="236.3" rx="3.7" ry="3.7"/>
	
		<ellipse transform="matrix(0.6982 -0.7159 0.7159 0.6982 -177.8869 103.4537)" class="st0" cx="33.8" cy="262.7" rx="3.7" ry="3.7"/>
	
		<ellipse transform="matrix(0.6982 -0.7159 0.7159 0.6982 -185.9978 118.6198)" class="st0" cx="47.7" cy="279.9" rx="3.7" ry="3.7"/>
	
		<ellipse transform="matrix(0.6982 -0.7159 0.7159 0.6982 -172.0184 116.7102)" class="st0" cx="52.4" cy="262.4" rx="3.7" ry="3.7"/>
	
		<ellipse transform="matrix(0.6982 -0.7159 0.7159 0.6982 -183.4184 104.1335)" class="st0" cx="31.8" cy="269.6" rx="3.7" ry="3.7"/>
	
		<ellipse transform="matrix(0.6982 -0.7159 0.7159 0.6982 -158.9706 113.7515)" class="st0" cx="55.4" cy="245.4" rx="3.7" ry="3.7"/>
	<ellipse transform="matrix(0.6982 -0.7159 0.7159 0.6982 -200.1758 114.7435)" class="st0" cx="36" cy="294.8" rx="3.7" ry="3.7"/>
	
		<ellipse transform="matrix(0.6982 -0.7159 0.7159 0.6982 -188.1414 135.8932)" class="st0" cx="67.1" cy="291.1" rx="3.7" ry="3.7"/>
	<ellipse transform="matrix(0.6982 -0.7159 0.7159 0.6982 -214.3371 125.5855)" class="st0" cx="41.8" cy="317" rx="3.7" ry="3.7"/>
	<ellipse transform="matrix(0.6982 -0.7159 0.7159 0.6982 -192.7526 160.8151)" class="st0" cx="94.4" cy="309" rx="3.7" ry="3.7"/>
	
		<ellipse transform="matrix(0.6982 -0.7159 0.7159 0.6982 -223.2183 172.3255)" class="st0" cx="92.8" cy="350.9" rx="3.7" ry="3.7"/>
	
		<ellipse transform="matrix(0.6982 -0.7159 0.7159 0.6982 -221.0483 134.7244)" class="st0" cx="49.3" cy="329.5" rx="3.7" ry="3.7"/>
	
		<ellipse transform="matrix(0.6982 -0.7159 0.7159 0.6982 -238.0814 147.0974)" class="st0" cx="55.4" cy="355.9" rx="3.7" ry="3.7"/>
	<ellipse transform="matrix(0.6982 -0.7159 0.7159 0.6982 -230.6514 164.7029)" class="st0" cx="80" cy="355.9" rx="3.7" ry="3.7"/>
	
		<ellipse transform="matrix(0.6982 -0.7159 0.7159 0.6982 -213.6483 179.0188)" class="st0" cx="105.5" cy="342.9" rx="3.7" ry="3.7"/>
	
		<ellipse transform="matrix(0.6982 -0.7159 0.7159 0.6982 -226.6389 191.8384)" class="st0" cx="114.2" cy="364.7" rx="3.7" ry="3.7"/>
	
		<ellipse transform="matrix(0.6982 -0.7159 0.7159 0.6982 -248.9109 176.1509)" class="st0" cx="84.5" cy="383.3" rx="3.7" ry="3.7"/>
	
		<ellipse transform="matrix(0.6982 -0.7159 0.7159 0.6982 -226.7994 209.0757)" class="st0" cx="134.6" cy="373.5" rx="3.7" ry="3.7"/>
	
		<ellipse transform="matrix(0.6982 -0.7159 0.7159 0.6982 -252.5742 202.7445)" class="st0" cx="114.2" cy="400.9" rx="3.7" ry="3.7"/>
	
		<ellipse transform="matrix(0.6982 -0.7159 0.7159 0.6982 -257.8565 235.4124)" class="st0" cx="150.3" cy="423.5" rx="3.7" ry="3.7"/>
	
		<ellipse transform="matrix(0.6982 -0.7159 0.7159 0.6982 -245.5021 217.5476)" class="st0" cx="135.3" cy="400" rx="3.7" ry="3.7"/>
	
		<ellipse transform="matrix(0.6982 -0.7159 0.7159 0.6982 -238.1436 235.7129)" class="st0" cx="160.5" cy="400.3" rx="3.7" ry="3.7"/>
	<ellipse transform="matrix(0.7575 -0.6529 0.6529 0.7575 -86.4611 69.8566)" class="st0" cx="50.8" cy="151.3" rx="3.7" ry="3.7"/>
	
		<ellipse transform="matrix(0.7575 -0.6529 0.6529 0.7575 -105.1899 87.0775)" class="st0" cx="64.6" cy="185.1" rx="3.7" ry="3.7"/>
	
		<ellipse transform="matrix(0.7575 -0.6529 0.6529 0.7575 -104.4214 72.3114)" class="st0" cx="45.1" cy="176.7" rx="3.7" ry="3.7"/>
	
		<ellipse transform="matrix(0.7575 -0.6529 0.6529 0.7575 -118.8089 79.5886)" class="st0" cx="47.7" cy="199.7" rx="3.7" ry="3.7"/>
	<ellipse transform="matrix(0.7575 -0.6529 0.6529 0.7575 -118.5323 104.9686)" class="st0" cx="82" cy="212" rx="3.7" ry="3.7"/>
	<ellipse class="st0" cx="259.7" cy="451.8" rx="3.7" ry="3.7"/>
	<ellipse class="st0" cx="234" cy="415.6" rx="3.7" ry="3.7"/>
	<ellipse class="st0" cx="237.1" cy="451.9" rx="3.7" ry="3.7"/>
	<ellipse transform="matrix(0.5427 -0.8399 0.8399 0.5427 72.966 266.4592)" class="st0" cx="281.2" cy="66.2" rx="3.7" ry="3.7"/>
	<ellipse class="st0" cx="205.2" cy="446.5" rx="3.7" ry="3.7"/>
	
		<ellipse transform="matrix(0.5427 -0.8399 0.8399 0.5427 -270.2986 357.2832)" class="st0" cx="193" cy="426.9" rx="3.7" ry="3.7"/>
	
		<ellipse transform="matrix(0.5427 -0.8399 0.8399 0.5427 -245.5714 338.2946)" class="st0" cx="187.9" cy="394.7" rx="3.7" ry="3.7"/>
	
		<ellipse transform="matrix(0.5427 -0.8399 0.8399 0.5427 -291.1793 349.4902)" class="st0" cx="175.4" cy="442.2" rx="3.7" ry="3.7"/>
	<ellipse class="st0" cx="420.3" cy="241.3" rx="3.7" ry="3.7"/>
	<ellipse class="st0" cx="432.9" cy="254.5" rx="3.7" ry="3.7"/>
	<ellipse class="st0" cx="443" cy="247.2" rx="3.7" ry="3.7"/>
</g>
<g id="smallDots">
	<circle class="st2" cx="114.2" cy="111.8" r="1.9"/>
	<circle class="st2" cx="87.5" cy="103.8" r="1.9"/>
	<circle class="st2" cx="87.5" cy="80.9" r="1.9"/>
	<circle class="st2" cx="94.3" cy="84.5" r="1.9"/>
	<circle class="st2" cx="92.9" cy="96.7" r="1.9"/>
	<circle class="st2" cx="103.9" cy="99.6" r="1.9"/>
	<circle class="st2" cx="98.1" cy="108.2" r="1.9"/>
	<circle class="st2" cx="115.3" cy="95.9" r="1.9"/>
	<circle class="st2" cx="105.3" cy="79" r="1.9"/>
	<circle class="st2" cx="117.4" cy="86.1" r="1.9"/>
	<circle class="st2" cx="128.2" cy="107.1" r="1.9"/>
	<circle class="st2" cx="123.7" cy="55.8" r="1.9"/>
	<circle class="st2" cx="151.4" cy="52.6" r="1.9"/>
	<circle class="st2" cx="160.4" cy="73.6" r="1.9"/>
	<circle class="st2" cx="152.8" cy="73" r="1.9"/>
	<circle class="st2" cx="149.3" cy="61.2" r="1.9"/>
	<circle class="st2" cx="138" cy="62.9" r="1.9"/>
	<circle class="st2" cx="139.9" cy="52.7" r="1.9"/>
	<circle class="st2" cx="129" cy="70.8" r="1.9"/>
	<circle class="st2" cx="144.8" cy="82.4" r="1.9"/>
	<circle class="st2" cx="131" cy="80.6" r="1.9"/>
	<circle class="st2" cx="112.7" cy="65.6" r="1.9"/>
	<circle class="st2" cx="182.7" cy="97.1" r="1.9"/>
	<circle class="st2" cx="163.1" cy="116.9" r="1.9"/>
	<circle class="st2" cx="142.9" cy="106.2" r="1.9"/>
	<circle class="st2" cx="149.2" cy="101.9" r="1.9"/>
	<circle class="st2" cx="159.4" cy="108.9" r="1.9"/>
	<circle class="st2" cx="167.1" cy="100.5" r="1.9"/>
	<circle class="st2" cx="172" cy="109.7" r="1.9"/>
	<circle class="st2" cx="169.1" cy="88.7" r="1.9"/>
	<circle class="st2" cx="149.6" cy="89.6" r="1.9"/>
	<circle class="st2" cx="161.5" cy="82.3" r="1.9"/>
	<circle class="st2" cx="185.1" cy="82.5" r="1.9"/>
	<circle class="st2" cx="129" cy="150.9" r="1.9"/>
	<circle class="st2" cx="102.3" cy="142.8" r="1.9"/>
	<circle class="st2" cx="102.3" cy="119.9" r="1.9"/>
	<circle class="st2" cx="109.1" cy="123.5" r="1.9"/>
	<circle class="st2" cx="94.4" cy="129.5" r="1.9"/>
	<circle class="st2" cx="118.7" cy="138.6" r="1.9"/>
	<circle class="st2" cx="112.9" cy="147.3" r="1.9"/>
	<circle class="st2" cx="130" cy="135" r="1.9"/>
	<circle class="st2" cx="120.1" cy="118.1" r="1.9"/>
	<circle class="st2" cx="132.2" cy="125.2" r="1.9"/>
	<circle class="st2" cx="143" cy="146.2" r="1.9"/>
	<circle class="st2" cx="64.8" cy="149.1" r="1.9"/>
	<circle class="st2" cx="55.5" cy="122.9" r="1.9"/>
	<circle class="st2" cx="74" cy="109.3" r="1.9"/>
	<circle class="st2" cx="75.1" cy="116.9" r="1.9"/>
	<circle class="st2" cx="64.4" cy="123" r="1.9"/>
	<circle class="st2" cx="72" cy="127" r="1.9"/>
	<circle class="st2" cx="58.2" cy="134" r="1.9"/>
	<circle class="st2" cx="78.3" cy="140.5" r="1.9"/>
	<circle class="st2" cx="86" cy="122.5" r="1.9"/>
	<circle class="st2" cx="87.5" cy="136.4" r="1.9"/>
	<circle class="st2" cx="76.9" cy="157.6" r="1.9"/>
	<circle class="st2" cx="93.1" cy="175.2" r="1.9"/>
	<circle class="st2" cx="65.6" cy="179.1" r="1.9"/>
	<circle class="st2" cx="55.9" cy="158.4" r="1.9"/>
	<circle class="st2" cx="59.6" cy="166.5" r="1.9"/>
	<circle class="st2" cx="67.4" cy="170.5" r="1.9"/>
	<circle class="st2" cx="78.6" cy="168.4" r="1.9"/>
	<circle class="st2" cx="77" cy="178.8" r="1.9"/>
	<circle class="st2" cx="87.4" cy="160.3" r="1.9"/>
	<circle class="st2" cx="71.3" cy="149.2" r="1.9"/>
	<circle class="st2" cx="85.2" cy="150.5" r="1.9"/>
	<circle class="st2" cx="103.9" cy="165" r="1.9"/>
	<circle class="st2" cx="66" cy="217.7" r="1.9"/>
	<circle class="st2" cx="46.3" cy="235.8" r="1.9"/>
	<circle class="st2" cx="37.3" cy="223.8" r="1.9"/>
	<circle class="st2" cx="32.2" cy="216.7" r="1.9"/>
	<circle class="st2" cx="41" cy="225.3" r="1.9"/>
	<circle class="st2" cx="50.1" cy="218.3" r="1.9"/>
	<circle class="st2" cx="53.3" cy="228.3" r="1.9"/>
	<circle class="st2" cx="54.1" cy="207.1" r="1.9"/>
	<circle class="st2" cx="34.7" cy="204.6" r="1.9"/>
	<circle class="st2" cx="43.3" cy="192.6" r="1.9"/>
	<circle class="st2" cx="71" cy="203.8" r="1.9"/>
	<circle class="st2" cx="45.5" cy="144.1" r="1.9"/>
	<circle class="st2" cx="48.4" cy="160" r="1.9"/>
	<circle class="st2" cx="35.9" cy="167.8" r="1.9"/>
	<circle class="st2" cx="55.2" cy="175.2" r="1.9"/>
	<circle class="st2" cx="53.3" cy="185.9" r="1.9"/>
	<circle class="st2" cx="79.8" cy="193.6" r="1.9"/>
	<circle class="st2" cx="97" cy="195" r="1.9"/>
	<circle class="st2" cx="29.4" cy="179.6" r="1.9"/>
	<circle class="st2" cx="88.8" cy="202.1" r="1.9"/>
	<circle class="st2" cx="76.5" cy="221.7" r="1.9"/>
	<circle class="st2" cx="76.9" cy="312.2" r="1.9"/>
	<circle class="st2" cx="54.1" cy="332.3" r="1.9"/>
	<circle class="st2" cx="42.4" cy="326.6" r="1.9"/>
	<circle class="st2" cx="29.4" cy="298.7" r="1.9"/>
	<circle class="st2" cx="50" cy="319.2" r="1.9"/>
	<circle class="st2" cx="50.9" cy="312.2" r="1.9"/>
	<circle class="st2" cx="62.6" cy="318.1" r="1.9"/>
	<circle class="st2" cx="56.6" cy="297.8" r="1.9"/>
	<circle class="st2" cx="37.4" cy="301.6" r="1.9"/>
	<circle class="st2" cx="48.1" cy="292.6" r="1.9"/>
	<circle class="st2" cx="76.6" cy="289.3" r="1.9"/>
	<circle class="st2" cx="33.6" cy="280.5" r="1.9"/>
	<circle class="st2" cx="35.8" cy="246" r="1.9"/>
	<circle class="st2" cx="43.1" cy="243.8" r="1.9"/>
	<circle class="st2" cx="43.3" cy="261.8" r="1.9"/>
	<circle class="st2" cx="35.1" cy="254.3" r="1.9"/>
	<circle class="st2" cx="35.9" cy="263" r="1.9"/>
	<circle class="st2" cx="36" cy="267.9" r="1.9"/>
	<circle class="st2" cx="37.5" cy="276.5" r="1.9"/>
	<circle class="st2" cx="54.1" cy="272.2" r="1.9"/>
	<circle class="st2" cx="47.4" cy="278" r="1.9"/>
	<circle class="st2" cx="27.2" cy="290.2" r="1.9"/>
	<circle class="st2" cx="80.1" cy="234.6" r="1.9"/>
	<circle class="st2" cx="76.6" cy="277" r="1.9"/>
	<circle class="st2" cx="73.6" cy="267.8" r="1.9"/>
	<circle class="st2" cx="78.1" cy="250.5" r="1.9"/>
	<circle class="st2" cx="76.1" cy="240.8" r="1.9"/>
	<circle class="st2" cx="62.1" cy="263.4" r="1.9"/>
	<circle class="st2" cx="65.3" cy="253.5" r="1.9"/>
	<circle class="st2" cx="69.9" cy="230.5" r="1.9"/>
	<circle class="st2" cx="88.2" cy="319.1" r="1.9"/>
	<circle class="st2" cx="67.1" cy="306.2" r="1.9"/>
	<circle class="st2" cx="81.4" cy="328.7" r="1.9"/>
	<circle class="st2" cx="95.3" cy="327.3" r="1.9"/>
	<circle class="st2" cx="98.4" cy="296.8" r="1.9"/>
	<circle class="st2" cx="84.5" cy="300.6" r="1.9"/>
	<circle class="st2" cx="90.1" cy="363" r="1.9"/>
	<circle class="st2" cx="62.3" cy="363.1" r="1.9"/>
	<circle class="st2" cx="55.6" cy="341.2" r="1.9"/>
	<circle class="st2" cx="63.1" cy="342.7" r="1.9"/>
	<circle class="st2" cx="65.3" cy="354.8" r="1.9"/>
	<circle class="st2" cx="71.7" cy="349" r="1.9"/>
	<circle class="st2" cx="80.7" cy="364.9" r="1.9"/>
	<circle class="st2" cx="86.5" cy="347.5" r="1.9"/>
	<circle class="st2" cx="72.1" cy="334.3" r="1.9"/>
	<circle class="st2" cx="85.7" cy="337.5" r="1.9"/>
	<circle class="st2" cx="111.6" cy="323.4" r="1.9"/>
	<circle class="st2" cx="124.1" cy="345" r="1.9"/>
	<circle class="st2" cx="118.7" cy="372.3" r="1.9"/>
	<circle class="st2" cx="95.9" cy="374.5" r="1.9"/>
	<circle class="st2" cx="101.2" cy="363.6" r="1.9"/>
	<circle class="st2" cx="158.5" cy="422" r="1.9"/>
	<circle class="st2" cx="112.9" cy="356.4" r="1.9"/>
	<circle class="st2" cx="122.1" cy="361.4" r="1.9"/>
	<circle class="st2" cx="115.7" cy="347.5" r="1.9"/>
	<circle class="st2" cx="103.9" cy="332.1" r="1.9"/>
	<circle class="st2" cx="94" cy="337.5" r="1.9"/>
	<circle class="st2" cx="155.3" cy="384.7" r="1.9"/>
	<circle class="st2" cx="162.9" cy="411.4" r="1.9"/>
	<circle class="st2" cx="125.8" cy="420.4" r="1.9"/>
	<circle class="st2" cx="143.1" cy="416.2" r="1.9"/>
	<circle class="st2" cx="154.1" cy="410.7" r="1.9"/>
	<circle class="st2" cx="150.5" cy="399.9" r="1.9"/>
	<circle class="st2" cx="160.5" cy="392.9" r="1.9"/>
	<circle class="st2" cx="141.3" cy="392.4" r="1.9"/>
	<circle class="st2" cx="132.5" cy="409.8" r="1.9"/>
	<circle class="st2" cx="124" cy="397.7" r="1.9"/>
	<circle class="st2" cx="143.7" cy="375.4" r="1.9"/>
	<circle class="st2" cx="79" cy="379.6" r="1.9"/>
	<circle class="st2" cx="95" cy="382.2" r="1.9"/>
	<circle class="st2" cx="98.2" cy="396.6" r="1.9"/>
	<circle class="st2" cx="111.6" cy="380.8" r="1.9"/>
	<circle class="st2" cx="120.2" cy="379.8" r="1.9"/>
	<circle class="st2" cx="137.1" cy="363.6" r="1.9"/>
	<circle class="st2" cx="144.1" cy="347.9" r="1.9"/>
	<circle class="st2" cx="107.2" cy="406.6" r="1.9"/>
	<circle class="st2" cx="160.3" cy="349.3" r="1.9"/>
	<circle class="st2" cx="148" cy="358" r="1.9"/>
	<circle class="st2" cx="173.1" cy="379.6" r="1.9"/>
	<circle class="st2" cx="420.2" cy="231.8" r="1.9"/>
	<circle class="st2" cx="443.8" cy="255.3" r="1.9"/>
	<circle class="st2" cx="473" cy="244.1" r="1.9"/>
	<circle class="st2" cx="465.8" cy="241.4" r="1.9"/>
	<circle class="st2" cx="461.6" cy="248.2" r="1.9"/>
	<circle class="st2" cx="436.1" cy="240.2" r="1.9"/>
	<circle class="st2" cx="433.5" cy="250.3" r="1.9"/>
	<circle class="st2" cx="431.4" cy="229.3" r="1.9"/>
	<circle class="st2" cx="437.3" cy="221.2" r="1.9"/>
	<circle class="st2" cx="416.2" cy="224.7" r="1.9"/>
	<circle class="st2" cx="439.8" cy="168.1" r="1.9"/>
	<circle class="st2" cx="418.8" cy="179" r="1.9"/>
	<circle class="st2" cx="426.8" cy="188.3" r="1.9"/>
	<circle class="st2" cx="434.8" cy="180.8" r="1.9"/>
	<circle class="st2" cx="440.9" cy="190.4" r="1.9"/>
	<circle class="st2" cx="459.3" cy="186.1" r="1.9"/>
	<circle class="st2" cx="441" cy="202.3" r="1.9"/>
	<circle class="st2" cx="422.3" cy="203.8" r="1.9"/>
	<circle class="st2" cx="432.4" cy="207.4" r="1.9"/>
	<circle class="st2" cx="405.3" cy="215.4" r="1.9"/>
	<circle class="st2" cx="392.3" cy="204.9" r="1.9"/>
	<circle class="st2" cx="401" cy="184.2" r="1.9"/>
	<circle class="st2" cx="413.3" cy="199.4" r="1.9"/>
	<circle class="st2" cx="410.9" cy="185.7" r="1.9"/>
	<circle class="st2" cx="404.8" cy="270.1" r="1.9"/>
	<circle class="st2" cx="421.9" cy="254.9" r="1.9"/>
	<circle class="st2" cx="414.8" cy="252.3" r="1.9"/>
	<circle class="st2" cx="415.9" cy="262.6" r="1.9"/>
	<circle class="st2" cx="397.1" cy="255.1" r="1.9"/>
	<circle class="st2" cx="394.5" cy="265.2" r="1.9"/>
	<circle class="st2" cx="392.3" cy="244.1" r="1.9"/>
	<circle class="st2" cx="411.5" cy="240.4" r="1.9"/>
	<circle class="st2" cx="398.2" cy="236" r="1.9"/>
	<circle class="st2" cx="375.3" cy="241.9" r="1.9"/>
	<circle class="st2" cx="425" cy="302.3" r="1.9"/>
	<circle class="st2" cx="462.8" cy="295.9" r="1.9"/>
	<circle class="st2" cx="460.7" cy="273.1" r="1.9"/>
	<circle class="st2" cx="442.3" cy="273.3" r="1.9"/>
	<circle class="st2" cx="444.8" cy="285.4" r="1.9"/>
	<circle class="st2" cx="433.5" cy="288" r="1.9"/>
	<circle class="st2" cx="440.7" cy="297.3" r="1.9"/>
	<circle class="st2" cx="422.5" cy="286.6" r="1.9"/>
	<circle class="st2" cx="430.8" cy="268.9" r="1.9"/>
	<circle class="st2" cx="419.4" cy="277" r="1.9"/>
	<circle class="st2" cx="410.5" cy="298.9" r="1.9"/>
	<circle class="st2" cx="386.7" cy="298.4" r="1.9"/>
	<circle class="st2" cx="402" cy="321.7" r="1.9"/>
	<circle class="st2" cx="421.2" cy="312.9" r="1.9"/>
	<circle class="st2" cx="415.4" cy="317.8" r="1.9"/>
	<circle class="st2" cx="407.2" cy="314.6" r="1.9"/>
	<circle class="st2" cx="401.4" cy="304.8" r="1.9"/>
	<circle class="st2" cx="394.7" cy="312.9" r="1.9"/>
	<circle class="st2" cx="401.6" cy="292.9" r="1.9"/>
	<circle class="st2" cx="410.4" cy="288" r="1.9"/>
	<circle class="st2" cx="387.2" cy="283.6" r="1.9"/>
	<circle class="st2" cx="372.8" cy="346.9" r="1.9"/>
	<circle class="st2" cx="372.4" cy="373.7" r="1.9"/>
	<circle class="st2" cx="398.3" cy="378.8" r="1.9"/>
	<circle class="st2" cx="396" cy="371.5" r="1.9"/>
	<circle class="st2" cx="383.7" cy="370.7" r="1.9"/>
	<circle class="st2" cx="382.9" cy="359.3" r="1.9"/>
	<circle class="st2" cx="373.3" cy="363.4" r="1.9"/>
	<circle class="st2" cx="388.6" cy="348.8" r="1.9"/>
	<circle class="st2" cx="403.4" cy="361.7" r="1.9"/>
	<circle class="st2" cx="406.7" cy="347.3" r="1.9"/>
	<circle class="st2" cx="380" cy="334" r="1.9"/>
	<circle class="st2" cx="459.4" cy="310.9" r="1.9"/>
	<circle class="st2" cx="427.7" cy="321.9" r="1.9"/>
	<circle class="st2" cx="430.2" cy="336.4" r="1.9"/>
	<circle class="st2" cx="411.8" cy="326.8" r="1.9"/>
	<circle class="st2" cx="405.1" cy="335.3" r="1.9"/>
	<circle class="st2" cx="381.7" cy="320.6" r="1.9"/>
	<circle class="st2" cx="369.3" cy="308.7" r="1.9"/>
	<circle class="st2" cx="425.6" cy="349.1" r="1.9"/>
	<circle class="st2" cx="369.4" cy="319.5" r="1.9"/>
	<circle class="st2" cx="362.9" cy="341.7" r="1.9"/>
	<circle class="st2" cx="294.9" cy="401.4" r="1.9"/>
	<circle class="st2" cx="294.9" cy="425.6" r="1.9"/>
	<circle class="st2" cx="307" cy="436.8" r="1.9"/>
	<circle class="st2" cx="336.5" cy="428" r="1.9"/>
	<circle class="st2" cx="307.5" cy="426.3" r="1.9"/>
	<circle class="st2" cx="312.1" cy="420.9" r="1.9"/>
	<circle class="st2" cx="299.9" cy="416.1" r="1.9"/>
	<circle class="st2" cx="319.1" cy="407.1" r="1.9"/>
	<circle class="st2" cx="329" cy="424" r="1.9"/>
	<circle class="st2" cx="328.7" cy="410" r="1.9"/>
	<circle class="st2" cx="312.2" cy="386.5" r="1.9"/>
	<circle class="st2" cx="358.3" cy="419.2" r="1.9"/>
	<circle class="st2" cx="382.7" cy="394.6" r="1.9"/>
	<circle class="st2" cx="368.5" cy="381.3" r="1.9"/>
	<circle class="st2" cx="354.9" cy="393.1" r="1.9"/>
	<circle class="st2" cx="366" cy="394.3" r="1.9"/>
	<circle class="st2" cx="358.9" cy="399.5" r="1.9"/>
	<circle class="st2" cx="366.2" cy="409" r="1.9"/>
	<circle class="st2" cx="347.7" cy="407.3" r="1.9"/>
	<circle class="st2" cx="340" cy="391.9" r="1.9"/>
	<circle class="st2" cx="340" cy="400.8" r="1.9"/>
	<circle class="st2" cx="344.3" cy="424.1" r="1.9"/>
	<circle class="st2" cx="350.8" cy="347.6" r="1.9"/>
	<circle class="st2" cx="324" cy="355.1" r="1.9"/>
	<circle class="st2" cx="321.4" cy="378.4" r="1.9"/>
	<circle class="st2" cx="330.4" cy="374.5" r="1.9"/>
	<circle class="st2" cx="309" cy="364.4" r="1.9"/>
	<circle class="st2" cx="340.3" cy="359.6" r="1.9"/>
	<circle class="st2" cx="348.9" cy="354.7" r="1.9"/>
	<circle class="st2" cx="341.3" cy="380.2" r="1.9"/>
	<circle class="st2" cx="346.5" cy="371.2" r="1.9"/>
	<circle class="st2" cx="360.7" cy="352.6" r="1.9"/>
	<circle class="st2" cx="282.3" cy="397.6" r="1.9"/>
	<path class="st2" d="M305.9,402.9c1,0,1.9,0.9,1.9,1.9c0,1-0.9,1.9-1.9,1.9s-1.9-0.9-1.9-1.9C304,403.8,304.9,402.9,305.9,402.9z"
		/>
	<circle class="st2" cx="279.6" cy="409" r="1.9"/>
	<circle class="st2" cx="277" cy="382.3" r="1.9"/>
	<circle class="st2" cx="271.4" cy="397.7" r="1.9"/>
	<circle class="st2" cx="292.1" cy="375.2" r="1.9"/>
	<circle class="st2" cx="298.5" cy="388.1" r="1.9"/>
	<circle class="st2" cx="301.8" cy="378.1" r="1.9"/>
	<circle class="st2" cx="248.1" cy="425.3" r="1.9"/>
	<circle class="st2" cx="262.7" cy="452.9" r="1.9"/>
	<circle class="st2" cx="287.3" cy="436.7" r="1.9"/>
	<circle class="st2" cx="281.2" cy="432" r="1.9"/>
	<circle class="st2" cx="270.6" cy="438.4" r="1.9"/>
	<circle class="st2" cx="262.1" cy="429.5" r="1.9"/>
	<circle class="st2" cx="253" cy="433.6" r="1.9"/>
	<circle class="st2" cx="262.1" cy="417.7" r="1.9"/>
	<circle class="st2" cx="281.6" cy="419.7" r="1.9"/>
	<circle class="st2" cx="270.6" cy="420.3" r="1.9"/>
	<circle class="st2" cx="259.4" cy="381.5" r="1.9"/>
	<circle class="st2" cx="239.1" cy="387.9" r="1.9"/>
	<circle class="st2" cx="222.2" cy="410" r="1.9"/>
	<circle class="st2" cx="232.5" cy="424.5" r="1.9"/>
	<circle class="st2" cx="240.3" cy="417.3" r="1.9"/>
	<circle class="st2" cx="160.3" cy="433.4" r="1.9"/>
	<path class="st2" d="M237.9,401.9c1,0,1.9,0.9,1.9,1.9c0,1-0.9,1.9-1.9,1.9s-1.9-0.9-1.9-1.9C236,402.8,236.9,401.9,237.9,401.9z"
		/>
	<circle class="st2" cx="228.1" cy="400.2" r="1.9"/>
	<circle class="st2" cx="242.7" cy="395.9" r="1.9"/>
	<circle class="st2" cx="262.1" cy="394.4" r="1.9"/>
	<path class="st2" d="M264.6,403.5c1,0,1.9,0.9,1.9,1.9s-0.9,1.9-1.9,1.9s-1.9-0.9-1.9-1.9S263.6,403.5,264.6,403.5z"/>
	<circle class="st2" cx="250.9" cy="389.9" r="1.9"/>
	<circle class="st2" cx="188.7" cy="390.8" r="1.9"/>
	<circle class="st2" cx="194.4" cy="438.6" r="1.9"/>
	<circle class="st2" cx="181.4" cy="436.6" r="1.9"/>
	<circle class="st2" cx="173.2" cy="420.9" r="1.9"/>
	<circle class="st2" cx="169.9" cy="409" r="1.9"/>
	<path class="st2" d="M180.4,402.6c1,0,1.9,0.9,1.9,1.9c0,1-0.9,1.9-1.9,1.9s-1.9-0.9-1.9-1.9C178.5,403.5,179.4,402.6,180.4,402.6z
		"/>
	<circle class="st2" cx="173.2" cy="388.5" r="1.9"/>
	<circle class="st2" cx="192.2" cy="406.4" r="1.9"/>
	<circle class="st2" cx="184.9" cy="424.6" r="1.9"/>
	<circle class="st2" cx="199.6" cy="422.9" r="1.9"/>
	<circle class="st2" cx="203.3" cy="393.3" r="1.9"/>
	<circle class="st2" cx="243" cy="444.6" r="1.9"/>
	<circle class="st2" cx="230.5" cy="434.3" r="1.9"/>
	<circle class="st2" cx="216.5" cy="451.1" r="1.9"/>
	<circle class="st2" cx="216.5" cy="429" r="1.9"/>
	<circle class="st2" cx="210.1" cy="406.4" r="1.9"/>
	<circle class="st2" cx="216.5" cy="390.5" r="1.9"/>
	<circle class="st2" cx="223.6" cy="374.8" r="1.9"/>
	<circle class="st2" cx="205" cy="432" r="1.9"/>
	<circle class="st2" cx="211.8" cy="363.6" r="1.9"/>
	<circle class="st2" cx="213.4" cy="378.6" r="1.9"/>
	<circle class="st2" cx="180.6" cy="374.1" r="1.9"/>
	<circle class="st2" cx="415.3" cy="168.1" r="1.9"/>
	<circle class="st2" cx="431" cy="173.5" r="1.9"/>
	<circle class="st2" cx="392.8" cy="148.3" r="1.9"/>
	<circle class="st2" cx="414.6" cy="155.3" r="1.9"/>
	<circle class="st2" cx="406.1" cy="152.5" r="1.9"/>
	<circle class="st2" cx="397.9" cy="155.5" r="1.9"/>
	<circle class="st2" cx="385.3" cy="156.9" r="1.9"/>
	<circle class="st2" cx="410.9" cy="172.8" r="1.9"/>
	<circle class="st2" cx="364.3" cy="95.6" r="1.9"/>
	<circle class="st2" cx="390.4" cy="91.1" r="1.9"/>
	<circle class="st2" cx="387.9" cy="98.3" r="1.9"/>
	<circle class="st2" cx="375.6" cy="98.9" r="1.9"/>
	<circle class="st2" cx="374.6" cy="110.3" r="1.9"/>
	<circle class="st2" cx="365.1" cy="105.9" r="1.9"/>
	<circle class="st2" cx="380" cy="120.9" r="1.9"/>
	<circle class="st2" cx="395.1" cy="108.3" r="1.9"/>
	<circle class="st2" cx="398" cy="122.8" r="1.9"/>
	<circle class="st2" cx="371.1" cy="135.5" r="1.9"/>
	<circle class="st2" cx="432.1" cy="157.3" r="1.9"/>
	<circle class="st2" cx="418.5" cy="148.7" r="1.9"/>
	<circle class="st2" cx="421.3" cy="134.2" r="1.9"/>
	<circle class="st2" cx="402.7" cy="143.3" r="1.9"/>
	<circle class="st2" cx="396.2" cy="134.7" r="1.9"/>
	<circle class="st2" cx="372.5" cy="148.9" r="1.9"/>
	<circle class="st2" cx="417" cy="121.4" r="1.9"/>
	<circle class="st2" cx="354.2" cy="127.4" r="1.9"/>
	<circle class="st2" cx="287.5" cy="66.2" r="1.9"/>
	<circle class="st2" cx="288.2" cy="35.8" r="1.9"/>
	<circle class="st2" cx="300.3" cy="31.1" r="1.9"/>
	<circle class="st2" cx="329.6" cy="40.5" r="1.9"/>
	<circle class="st2" cx="300.6" cy="41.7" r="1.9"/>
	<circle class="st2" cx="305.1" cy="47.1" r="1.9"/>
	<circle class="st2" cx="292.8" cy="51.6" r="1.9"/>
	<circle class="st2" cx="311.8" cy="61.1" r="1.9"/>
	<circle class="st2" cx="322" cy="44.4" r="1.9"/>
	<circle class="st2" cx="321.4" cy="58.4" r="1.9"/>
	<circle class="st2" cx="304.5" cy="81.5" r="1.9"/>
	<circle class="st2" cx="351.2" cy="49.8" r="1.9"/>
	<circle class="st2" cx="375.1" cy="74.9" r="1.9"/>
	<circle class="st2" cx="360.6" cy="87.9" r="1.9"/>
	<circle class="st2" cx="347.2" cy="75.8" r="1.9"/>
	<circle class="st2" cx="358.3" cy="74.9" r="1.9"/>
	<circle class="st2" cx="351.4" cy="69.5" r="1.9"/>
	<circle class="st2" cx="358.9" cy="60.2" r="1.9"/>
	<circle class="st2" cx="340.4" cy="61.5" r="1.9"/>
	<circle class="st2" cx="332.3" cy="76.7" r="1.9"/>
	<circle class="st2" cx="332.6" cy="67.8" r="1.9"/>
	<circle class="st2" cx="337.3" cy="44.6" r="1.9"/>
	<circle class="st2" cx="313.5" cy="89.9" r="1.9"/>
	<circle class="st2" cx="322.3" cy="93.9" r="1.9"/>
	<circle class="st2" cx="300.8" cy="103.6" r="1.9"/>
	<circle class="st2" cx="331.9" cy="109" r="1.9"/>
	<circle class="st2" cx="338.4" cy="124" r="1.9"/>
	<circle class="st2" cx="333.4" cy="88.5" r="1.9"/>
	<circle class="st2" cx="338.4" cy="97.6" r="1.9"/>
	<circle class="st2" cx="352.1" cy="116.5" r="1.9"/>
	<circle class="st2" cx="274.7" cy="69.8" r="1.9"/>
	<circle class="st2" cx="298.5" cy="63.1" r="1.9"/>
	<circle class="st2" cx="272.3" cy="58.3" r="1.9"/>
	<circle class="st2" cx="269.2" cy="85" r="1.9"/>
	<circle class="st2" cx="263.9" cy="69.4" r="1.9"/>
	<circle class="st2" cx="284.1" cy="92.4" r="1.9"/>
	<circle class="st2" cx="290.8" cy="79.6" r="1.9"/>
	<circle class="st2" cx="241.2" cy="41.4" r="1.9"/>
	<circle class="st2" cx="272" cy="24.9" r="1.9"/>
	<circle class="st2" cx="280.6" cy="30.8" r="1.9"/>
	<circle class="st2" cx="274.4" cy="35.3" r="1.9"/>
	<circle class="st2" cx="264" cy="28.7" r="1.9"/>
	<circle class="st2" cx="264" cy="37.4" r="1.9"/>
	<circle class="st2" cx="246.2" cy="33.2" r="1.9"/>
	<circle class="st2" cx="255" cy="49.2" r="1.9"/>
	<circle class="st2" cx="274.5" cy="47.6" r="1.9"/>
	<circle class="st2" cx="262.9" cy="55.4" r="1.9"/>
	<circle class="st2" cx="255.6" cy="84.1" r="1.9"/>
	<circle class="st2" cx="231.3" cy="78.6" r="1.9"/>
	<circle class="st2" cx="215" cy="56.1" r="1.9"/>
	<circle class="st2" cx="228.8" cy="37.8" r="1.9"/>
	<circle class="st2" cx="233.2" cy="49.1" r="1.9"/>
	<circle class="st2" cx="151.4" cy="37.4" r="1.9"/>
	<circle class="st2" cx="230.5" cy="62.6" r="1.9"/>
	<circle class="st2" cx="220.6" cy="66" r="1.9"/>
	<circle class="st2" cx="235.2" cy="70.7" r="1.9"/>
	<circle class="st2" cx="254.5" cy="72.5" r="1.9"/>
	<circle class="st2" cx="257.2" cy="61.6" r="1.9"/>
	<circle class="st2" cx="243.2" cy="76.7" r="1.9"/>
	<circle class="st2" cx="181" cy="74.5" r="1.9"/>
	<circle class="st2" cx="156.2" cy="62" r="1.9"/>
	<circle class="st2" cx="174.8" cy="28.6" r="1.9"/>
	<circle class="st2" cx="166.2" cy="44.1" r="1.9"/>
	<circle class="st2" cx="162.7" cy="55.9" r="1.9"/>
	<circle class="st2" cx="173.1" cy="60.7" r="1.9"/>
	<circle class="st2" cx="166.6" cy="78.8" r="1.9"/>
	<circle class="st2" cx="184.9" cy="59" r="1.9"/>
	<circle class="st2" cx="178" cy="40.7" r="1.9"/>
	<circle class="st2" cx="192.6" cy="42.7" r="1.9"/>
	<circle class="st2" cx="195.7" cy="72.3" r="1.9"/>
	<circle class="st2" cx="248.5" cy="26" r="1.9"/>
	<circle class="st2" cx="223.8" cy="31.9" r="1.9"/>
	<circle class="st2" cx="223.1" cy="28.5" r="1.9"/>
	<circle class="st2" cx="213.6" cy="45.1" r="1.9"/>
	<circle class="st2" cx="208.4" cy="52.1" r="1.9"/>
	<circle class="st2" cx="208.8" cy="75.5" r="1.9"/>
	<circle class="st2" cx="215.6" cy="91.3" r="1.9"/>
	<circle class="st2" cx="209.6" cy="28.3" r="1.9"/>
	<circle class="st2" cx="203.6" cy="102.2" r="1.9"/>
	<circle class="st2" cx="205.5" cy="87.3" r="1.9"/>
	<circle class="st2" cx="435.9" cy="143.3" r="1.9"/>
</g>
<g id="text">
	<text transform="matrix(0.9161 0 0 1 149.9863 269.21)" class="st2 st3 st4">DOT</text>
	<text transform="matrix(1 0 0 1 149.2864 301.6415)" class="st5 st3 st6">DASHBOARD OF TOMORROW</text>
</g>
</svg>
